<?xml version="1.0" standalone="no"?><!DOCTYPE svg PUBLIC "-//W3C//DTD SVG 1.1//EN" "http://www.w3.org/Graphics/SVG/1.1/DTD/svg11.dtd"><svg height="200" node-id="1" sillyvg="true" template-height="2903" template-width="2903" version="1.1" viewBox="0 0 2903 2903" width="200" xmlns="http://www.w3.org/2000/svg" xmlns:xlink="http://www.w3.org/1999/xlink"><defs node-id="116"><linearGradient gradientUnits="objectBoundingBox" id="SVGID_1_" node-id="3" spreadMethod="pad" x1="1451.3398" x2="1451.3398" y1="1257.3701" y2="2221.1494"><stop offset="0.0215" stop-color="#f0f0f0"></stop><stop offset="0.3925" stop-color="#ffffff"></stop><stop offset="0.7903" stop-color="#9e9e9e"></stop><stop offset="0.9839" stop-color="#5c5c5c"></stop></linearGradient><linearGradient gradientUnits="objectBoundingBox" id="SVGID_2_" node-id="35" spreadMethod="pad" x1="14851.971" x2="13997.895" y1="18219.633" y2="18219.633"><stop offset="0" stop-color="#ffffff"></stop><stop offset="1" stop-color="#bdbdbd"></stop></linearGradient><linearGradient gradientUnits="objectBoundingBox" id="SVGID_3_" node-id="46" spreadMethod="pad" x1="17940.816" x2="17086.74" y1="18219.633" y2="18219.633"><stop offset="0" stop-color="#ffffff"></stop><stop offset="1" stop-color="#bdbdbd"></stop></linearGradient><linearGradient gradientUnits="objectBoundingBox" id="SVGID_4_" node-id="56" spreadMethod="pad" x1="451.5234" x2="451.5234" y1="1297.2656" y2="2200.7803"><stop offset="0.0215" stop-color="#d1d1d1"></stop><stop offset="0.3925" stop-color="#cfcfcf"></stop><stop offset="0.7903" stop-color="#828282"></stop><stop offset="0.9839" stop-color="#454545"></stop></linearGradient><linearGradient gradientUnits="objectBoundingBox" id="SVGID_5_" node-id="62" spreadMethod="pad" x1="2467.7324" x2="2467.7324" y1="1297.4873" y2="2200.704"><stop offset="0.0215" stop-color="#d1d1d1"></stop><stop offset="0.3925" stop-color="#cfcfcf"></stop><stop offset="0.7903" stop-color="#828282"></stop><stop offset="0.9839" stop-color="#454545"></stop></linearGradient><linearGradient gradientUnits="objectBoundingBox" id="SVGID_6_" node-id="90" spreadMethod="pad" x1="1988.5244" x2="1988.5244" y1="1395.9736" y2="849.0439"><stop offset="0" stop-color="#ffffff"></stop><stop offset="1" stop-color="#b2b2b2"></stop></linearGradient><linearGradient gradientUnits="objectBoundingBox" id="SVGID_7_" node-id="111" spreadMethod="pad" x1="1988.5244" x2="1988.5244" y1="1150.8545" y2="1094.1621"><stop offset="0" stop-color="#ffffff"></stop><stop offset="1" stop-color="#b2b2b2"></stop></linearGradient></defs><g node-id="364"><path d="M 2797.80 1767.60 L 2797.50 1784.30 L 2796.60 1800.70 L 2795.10 1817.00 L 2793.10 1833.00 L 2790.50 1848.90 L 2787.30 1864.70 L 2783.50 1880.20 L 2779.30 1895.50 L 2774.60 1910.60 L 2769.30 1925.40 L 2763.50 1940.10 L 2757.20 1954.50 L 2750.50 1968.60 L 2743.30 1982.50 L 2735.60 1996.10 L 2727.50 2009.40 L 2719.00 2022.40 L 2710.00 2035.00 L 2700.60 2047.40 L 2690.80 2059.40 L 2680.60 2071.10 L 2670.00 2082.40 L 2659.10 2093.30 L 2647.70 2103.90 L 2636.00 2114.10 L 2624.00 2124.00 L 2611.70 2133.30 L 2599.00 2142.30 L 2586.00 2150.90 L 2572.70 2159.00 L 2559.10 2166.70 L 2545.30 2173.90 L 2531.20 2180.60 L 2516.80 2186.90 L 2502.10 2192.70 L 2487.20 2197.90 L 2472.20 2202.70 L 2456.90 2206.90 L 2441.30 2210.60 L 2425.50 2213.80 L 2409.70 2216.40 L 2393.60 2218.50 L 2377.40 2219.90 L 2360.90 2220.80 L 2344.30 2221.10 L 558.40 2221.10 L 541.70 2220.80 L 525.30 2219.90 L 509.00 2218.50 L 493.00 2216.40 L 477.20 2213.80 L 461.40 2210.60 L 445.80 2206.90 L 430.50 2202.70 L 415.40 2197.90 L 400.60 2192.70 L 385.90 2186.90 L 371.50 2180.60 L 357.40 2173.90 L 343.50 2166.70 L 330.00 2159.00 L 316.70 2150.90 L 303.70 2142.30 L 291.00 2133.30 L 278.70 2124.00 L 266.60 2114.10 L 254.90 2103.90 L 243.60 2093.30 L 232.70 2082.40 L 222.10 2071.10 L 211.90 2059.40 L 202.10 2047.40 L 192.70 2035.00 L 183.70 2022.40 L 175.20 2009.40 L 167.00 1996.10 L 159.40 1982.50 L 152.20 1968.60 L 145.40 1954.50 L 139.20 1940.10 L 133.40 1925.40 L 128.10 1910.60 L 123.40 1895.50 L 119.10 1880.20 L 115.40 1864.70 L 112.20 1848.90 L 109.60 1833.00 L 107.60 1817.00 L 106.10 1800.70 L 105.20 1784.30 L 104.90 1767.60 L 104.90 1710.90 L 105.20 1694.20 L 106.10 1677.80 L 107.60 1661.50 L 109.60 1645.50 L 112.20 1629.70 L 115.40 1613.80 L 119.10 1598.30 L 123.40 1583.00 L 128.10 1567.90 L 133.40 1553.10 L 139.20 1538.40 L 145.40 1524.00 L 152.20 1509.90 L 159.40 1496.00 L 167.00 1482.50 L 175.20 1469.10 L 183.70 1456.20 L 192.70 1443.50 L 202.10 1431.20 L 211.90 1419.10 L 222.10 1407.40 L 232.70 1396.10 L 243.60 1385.20 L 254.90 1374.60 L 266.60 1364.40 L 278.70 1354.60 L 291.00 1345.20 L 303.70 1336.20 L 316.70 1327.70 L 330.00 1319.50 L 343.50 1311.90 L 357.40 1304.70 L 371.50 1297.90 L 385.90 1291.70 L 400.60 1285.90 L 415.40 1280.60 L 430.50 1275.80 L 445.80 1271.60 L 461.40 1267.90 L 477.20 1264.70 L 493.00 1262.10 L 509.00 1260.10 L 525.30 1258.60 L 541.70 1257.70 L 558.40 1257.40 L 2344.30 1257.40 L 2360.90 1257.70 L 2377.40 1258.60 L 2393.60 1260.10 L 2409.70 1262.10 L 2425.50 1264.70 L 2441.30 1267.90 L 2456.90 1271.60 L 2472.20 1275.80 L 2487.30 1280.60 L 2502.10 1285.90 L 2516.80 1291.70 L 2531.20 1297.90 L 2545.30 1304.70 L 2559.10 1311.90 L 2572.70 1319.50 L 2586.00 1327.70 L 2599.00 1336.20 L 2611.70 1345.20 L 2624.00 1354.60 L 2636.00 1364.40 L 2647.70 1374.60 L 2659.10 1385.20 L 2670.00 1396.10 L 2680.60 1407.40 L 2690.80 1419.10 L 2700.60 1431.20 L 2710.00 1443.50 L 2719.00 1456.20 L 2727.50 1469.10 L 2735.60 1482.50 L 2743.30 1496.00 L 2750.50 1509.90 L 2757.20 1524.00 L 2763.50 1538.40 L 2769.30 1553.10 L 2774.60 1567.90 L 2779.30 1583.00 L 2783.50 1598.30 L 2787.30 1613.80 L 2790.50 1629.70 L 2793.10 1645.50 L 2795.10 1661.50 L 2796.60 1677.80 L 2797.50 1694.20 L 2797.80 1710.90 L 2797.80 1767.60 Z" fill="url(#SVGID_1_)" fill-rule="evenodd" group-id="1" node-id="175" stroke="none" target-height="963.7001" target-width="2692.9001" target-x="104.9" target-y="1257.4"></path></g><g node-id="365"><g node-id="381"><path d="M 977.30 1806.20 L 1015.50 1806.20 L 1015.50 1834.70 L 1003.00 1834.70 L 1003.00 1816.30 L 1002.10 1813.50 L 1001.20 1812.30 L 998.60 1810.90 L 989.70 1810.70 L 989.70 1852.60 L 977.30 1852.60 L 977.30 1806.20 Z" fill="#494949" fill-rule="evenodd" group-id="2,18" node-id="182" stroke="none" target-height="46.400024" target-width="38.200012" target-x="977.3" target-y="1806.2"></path><path d="M 939.10 1806.20 L 971.30 1806.20 L 974.40 1809.50 L 974.40 1852.60 L 958.70 1852.60 L 958.70 1837.90 L 962.00 1837.90 L 962.00 1815.40 L 958.80 1810.70 L 953.20 1810.70 L 948.60 1815.40 L 948.60 1852.60 L 936.30 1852.60 L 936.30 1809.20 Z" fill="#494949" fill-rule="evenodd" group-id="2,18" node-id="184" stroke="none" target-height="46.400024" target-width="38.100037" target-x="936.3" target-y="1806.2"></path><path d="M 853.40 1806.30 L 933.30 1806.30 L 932.70 1815.80 L 931.20 1821.70 L 929.90 1824.50 L 928.30 1827.10 L 926.10 1829.60 L 923.30 1832.10 L 934.40 1852.50 L 923.00 1852.50 L 911.50 1831.50 L 911.20 1830.30 L 911.40 1829.30 L 913.00 1827.60 L 917.40 1824.60 L 919.30 1822.10 L 921.50 1817.90 L 922.00 1814.70 L 921.70 1813.30 L 921.00 1812.00 L 919.90 1810.80 L 878.50 1810.80 L 878.50 1852.50 L 867.20 1852.50 L 867.20 1816.50 L 866.90 1815.10 L 865.40 1812.60 L 863.00 1811.00 L 853.40 1810.80 L 853.40 1806.30 Z" fill="#494949" fill-rule="evenodd" group-id="2,18" node-id="186" stroke="none" target-height="46.19995" target-width="81" target-x="853.4" target-y="1806.3"></path><path d="M 890.70 1815.50 L 903.00 1815.50 L 903.00 1852.50 L 890.70 1852.50 Z" fill="#494949" fill-rule="evenodd" group-id="2,18" node-id="188" stroke="none" target-height="37" target-width="12.299988" target-x="890.7" target-y="1815.5"></path><path d="M 849.80 1806.20 L 850.50 1807.30 L 851.10 1811.10 L 851.10 1852.50 L 838.80 1852.50 L 838.60 1815.20 L 837.40 1812.90 L 835.90 1811.70 L 834.00 1810.70 L 824.30 1810.70 L 824.30 1846.60 L 824.10 1848.30 L 822.50 1850.80 L 819.80 1852.30 L 818.10 1852.50 L 787.30 1852.50 L 787.30 1815.60 L 800.80 1815.60 L 800.80 1838.00 L 805.60 1838.00 L 807.50 1837.60 L 809.00 1836.80 L 810.10 1835.70 L 811.60 1832.90 L 811.90 1831.30 L 811.90 1806.20 L 849.80 1806.20 Z" fill="#494949" fill-rule="evenodd" group-id="2,18" node-id="190" stroke="none" target-height="46.30005" target-width="63.799988" target-x="787.3" target-y="1806.2"></path><path d="M 1011.80 1796.90 L 977.70 1796.90 L 977.70 1801.10 L 1015.70 1801.10 L 1015.20 1799.70 L 1014.30 1798.50 L 1011.80 1796.90 Z" fill="#494949" fill-rule="evenodd" group-id="2,18" node-id="192" stroke="none" target-height="4.199951" target-width="38" target-x="977.7" target-y="1796.9"></path><path d="M 961.90 1796.90 L 949.00 1796.90 L 946.50 1798.80 L 944.20 1801.10 L 966.70 1801.10 L 964.50 1798.70 L 961.90 1796.90 Z" fill="#494949" fill-rule="evenodd" group-id="2,18" node-id="194" stroke="none" target-height="4.199951" target-width="22.5" target-x="944.2" target-y="1796.9"></path><path d="M 1035.90 1796.90 L 1057.50 1796.90 L 1057.50 1801.10 L 1027.40 1801.10 L 1029.60 1799.20 L 1031.70 1798.00 L 1035.90 1796.90 Z" fill="#494949" fill-rule="evenodd" group-id="2,18" node-id="196" stroke="none" target-height="4.199951" target-width="30.099976" target-x="1027.4" target-y="1796.9"></path><path d="M 837.90 1796.90 L 811.70 1796.90 L 811.70 1801.10 L 846.40 1801.10 L 844.10 1799.20 L 842.00 1798.00 L 837.90 1796.90 Z" fill="#494949" fill-rule="evenodd" group-id="2,18" node-id="198" stroke="none" target-height="4.199951" target-width="34.700012" target-x="811.7" target-y="1796.9"></path><path d="M 918.70 1796.90 L 853.40 1796.90 L 853.40 1801.10 L 928.60 1801.10 L 927.10 1799.80 L 923.50 1798.00 L 918.70 1796.90 Z" fill="#494949" fill-rule="evenodd" group-id="2,18" node-id="200" stroke="none" target-height="4.199951" target-width="75.19995" target-x="853.4" target-y="1796.9"></path><path d="M 763.70 1796.90 L 800.80 1796.90 L 800.80 1801.10 L 755.30 1801.10 L 757.50 1799.20 L 759.60 1798.00 L 763.70 1796.90 Z" fill="#494949" fill-rule="evenodd" group-id="2,18" node-id="202" stroke="none" target-height="4.199951" target-width="45.5" target-x="755.3" target-y="1796.9"></path><path d="M 1022.50 1806.10 L 1057.50 1806.10 L 1057.50 1810.80 L 1037.30 1810.80 L 1037.90 1814.50 L 1038.70 1817.20 L 1039.90 1819.40 L 1042.20 1822.30 L 1044.80 1824.70 L 1053.20 1831.00 L 1055.30 1833.40 L 1056.40 1836.20 L 1056.90 1838.60 L 1056.90 1840.90 L 1056.50 1843.20 L 1055.70 1845.20 L 1053.20 1848.60 L 1049.80 1851.10 L 1047.90 1851.90 L 1044.10 1852.40 L 1002.90 1852.40 L 1002.90 1838.00 L 1031.10 1838.00 L 1034.20 1837.10 L 1035.60 1836.10 L 1036.60 1834.90 L 1036.80 1834.00 L 1036.70 1833.00 L 1036.10 1831.80 L 1029.10 1825.90 L 1026.80 1823.30 L 1024.90 1820.30 L 1023.20 1815.60 L 1022.60 1812.70 L 1022.50 1806.10 Z" fill="#494949" fill-rule="evenodd" group-id="2,18" node-id="204" stroke="none" target-height="46.30005" target-width="54.599976" target-x="1002.9" target-y="1806.1"></path><path d="M 751.30 1806.10 L 800.80 1806.10 L 800.80 1810.80 L 764.80 1810.80 L 766.00 1815.80 L 766.90 1817.60 L 768.60 1820.00 L 770.60 1821.90 L 779.50 1828.50 L 781.40 1830.40 L 782.90 1832.70 L 784.00 1835.40 L 784.60 1837.90 L 784.70 1840.20 L 784.40 1842.60 L 783.80 1844.60 L 781.50 1848.20 L 780.10 1849.50 L 776.60 1851.50 L 773.00 1852.10 L 743.20 1852.10 L 743.20 1838.10 L 759.90 1838.10 L 763.00 1837.10 L 764.50 1836.10 L 765.60 1834.00 L 764.90 1831.80 L 757.90 1825.90 L 755.60 1823.30 L 753.70 1820.30 L 752.00 1815.60 L 751.40 1812.70 L 751.30 1806.10 Z" fill="#494949" fill-rule="evenodd" group-id="2,18" node-id="206" stroke="none" target-height="46" target-width="57.599976" target-x="743.2" target-y="1806.1"></path></g><path d="M 890.80 1669.10 L 946.90 1669.10 L 987.30 1705.10 L 929.40 1704.80 L 918.00 1691.00 L 870.60 1741.10 L 881.90 1741.10 L 896.70 1754.60 L 946.00 1704.90 L 970.40 1725.90 L 923.10 1774.60 L 867.10 1774.60 L 835.10 1741.10 L 865.40 1741.10 L 842.50 1717.60 Z" fill="#494949" fill-rule="evenodd" group-id="2" node-id="209" stroke="none" target-height="105.5" target-width="152.20001" target-x="835.1" target-y="1669.1"></path><g node-id="382"><path d="M 1029.10 1680.10 L 1029.60 1678.40 L 1029.30 1677.20 L 1028.60 1676.30 L 1027.50 1675.70 L 1019.80 1675.40 L 1019.80 1681.50 L 1026.60 1681.40 L 1027.70 1681.20 L 1029.10 1680.10 Z" fill="#494949" fill-rule="evenodd" group-id="2,19" node-id="213" stroke="none" target-height="6.0999756" target-width="9.799988" target-x="1019.8" target-y="1675.4"></path><path d="M 1024.50 1665.50 L 1021.40 1665.80 L 1018.50 1666.60 L 1015.90 1667.80 L 1013.50 1669.50 L 1011.40 1671.60 L 1009.70 1674.00 L 1008.50 1676.60 L 1007.70 1679.50 L 1007.40 1682.60 L 1007.70 1685.70 L 1008.50 1688.60 L 1009.70 1691.20 L 1011.40 1693.60 L 1013.50 1695.70 L 1015.90 1697.40 L 1018.50 1698.60 L 1021.40 1699.40 L 1024.50 1699.70 L 1027.60 1699.40 L 1030.50 1698.60 L 1033.10 1697.40 L 1035.50 1695.70 L 1037.60 1693.60 L 1039.20 1691.20 L 1040.50 1688.60 L 1041.30 1685.70 L 1041.60 1682.60 L 1041.30 1679.50 L 1040.50 1676.60 L 1039.30 1674.00 L 1037.60 1671.60 L 1035.50 1669.50 L 1033.10 1667.80 L 1030.50 1666.60 L 1027.60 1665.80 L 1024.50 1665.50 Z M 1030.50 1691.80 L 1026.40 1685.40 L 1025.10 1684.20 L 1024.00 1683.70 L 1019.80 1683.60 L 1019.80 1691.80 L 1017.40 1691.80 L 1017.40 1673.40 L 1025.60 1673.40 L 1029.30 1673.90 L 1030.40 1674.60 L 1031.30 1675.70 L 1031.90 1677.00 L 1032.10 1678.40 L 1031.50 1680.80 L 1029.90 1682.50 L 1026.90 1683.40 L 1028.40 1684.30 L 1029.40 1685.40 L 1033.60 1691.80 L 1030.50 1691.80 Z" fill="#494949" fill-rule="evenodd" group-id="2,19" node-id="215" stroke="none" target-height="34.19995" target-width="34.19995" target-x="1007.4" target-y="1665.5"></path></g></g><g node-id="366"><path d="M 1188.20 1718.50 L 1199.10 1729.10 L 1184.30 1740.40 L 1170.20 1750.50 L 1156.70 1759.60 L 1143.90 1767.70 L 1131.80 1774.80 L 1127.80 1769.90 L 1124.10 1765.90 L 1120.70 1762.80 L 1132.60 1756.50 L 1144.30 1749.70 L 1155.70 1742.50 L 1166.80 1735.00 L 1177.60 1727.00 L 1188.20 1718.50 Z M 1127.70 1830.00 L 1204.50 1830.00 L 1204.50 1781.60 L 1146.70 1781.60 L 1146.70 1767.60 L 1278.10 1767.60 L 1278.10 1781.60 L 1220.10 1781.60 L 1220.10 1830.00 L 1297.10 1830.00 L 1297.10 1844.00 L 1127.70 1844.00 L 1127.70 1830.00 Z M 1128.80 1695.30 L 1209.00 1695.30 L 1204.40 1687.10 L 1198.40 1677.20 L 1212.00 1670.60 L 1216.90 1677.90 L 1225.10 1692.00 L 1218.40 1695.30 L 1296.10 1695.30 L 1296.10 1731.10 L 1281.00 1731.10 L 1281.00 1709.30 L 1144.00 1709.30 L 1144.00 1731.10 L 1128.80 1731.10 L 1128.80 1695.30 Z M 1235.60 1718.70 L 1255.20 1730.60 L 1272.90 1741.80 L 1288.80 1752.40 L 1303.00 1762.30 L 1292.40 1775.00 L 1278.60 1764.50 L 1263.10 1753.40 L 1245.90 1741.70 L 1226.80 1729.40 L 1235.60 1718.70 Z" fill="#000000" fill-rule="nonzero" group-id="3" node-id="221" stroke="none" target-height="173.40002" target-width="182.30005" target-x="1120.7" target-y="1670.6"></path><path d="M 1328.30 1745.50 L 1335.60 1735.80 L 1342.40 1725.90 L 1348.60 1715.60 L 1354.20 1705.00 L 1359.30 1694.00 L 1363.90 1682.70 L 1368.00 1671.00 L 1382.90 1675.40 L 1376.50 1692.20 L 1502.40 1692.20 L 1502.40 1705.10 L 1370.80 1705.10 L 1365.50 1715.80 L 1359.90 1726.00 L 1353.90 1735.70 L 1347.70 1745.00 L 1341.10 1753.90 L 1334.20 1762.30 L 1328.30 1745.50 Z M 1347.50 1765.20 L 1347.50 1752.30 L 1478.40 1752.30 L 1478.70 1785.80 L 1479.50 1797.90 L 1480.70 1808.00 L 1482.30 1816.60 L 1484.10 1823.60 L 1486.20 1829.50 L 1488.40 1834.20 L 1490.00 1836.30 L 1491.30 1837.10 L 1492.30 1837.30 L 1493.20 1836.80 L 1494.20 1835.40 L 1495.20 1832.70 L 1496.70 1823.90 L 1497.90 1813.20 L 1498.90 1800.30 L 1505.60 1802.40 L 1512.20 1804.10 L 1511.60 1813.60 L 1510.30 1823.90 L 1508.30 1835.30 L 1506.90 1840.10 L 1505.30 1844.00 L 1503.50 1847.00 L 1501.40 1849.30 L 1499.20 1851.10 L 1496.80 1852.40 L 1494.10 1853.10 L 1491.20 1853.40 L 1488.40 1853.20 L 1485.90 1852.50 L 1483.50 1851.40 L 1481.30 1849.70 L 1479.10 1847.60 L 1477.10 1844.90 L 1475.10 1841.40 L 1472.80 1836.30 L 1470.70 1830.50 L 1468.70 1823.70 L 1467.00 1815.90 L 1465.70 1807.00 L 1464.60 1796.90 L 1463.90 1785.40 L 1463.70 1765.20 L 1347.50 1765.20 Z M 1368.10 1722.40 L 1488.40 1722.40 L 1488.40 1735.00 L 1368.10 1735.00 L 1368.10 1722.40 Z" fill="#000000" fill-rule="nonzero" group-id="3" node-id="223" stroke="none" target-height="182.40002" target-width="183.8999" target-x="1328.3" target-y="1671"></path><path d="M 1573.70 1747.10 L 1573.40 1764.70 L 1572.70 1779.40 L 1571.60 1791.50 L 1570.20 1801.30 L 1568.50 1809.10 L 1566.60 1816.10 L 1564.00 1823.10 L 1560.90 1830.30 L 1557.20 1837.60 L 1552.90 1845.00 L 1547.90 1852.60 L 1536.40 1840.30 L 1541.00 1833.10 L 1544.90 1826.40 L 1548.00 1820.00 L 1550.60 1813.90 L 1554.00 1802.80 L 1555.30 1796.50 L 1556.40 1788.40 L 1557.40 1778.30 L 1558.00 1765.80 L 1558.20 1685.30 L 1717.00 1685.30 L 1717.00 1699.40 L 1573.70 1699.40 L 1573.70 1747.10 Z M 1573.70 1828.80 L 1637.90 1828.80 L 1637.90 1763.60 L 1587.20 1763.60 L 1587.20 1749.70 L 1637.90 1749.70 L 1637.90 1708.60 L 1653.40 1708.60 L 1653.40 1749.70 L 1710.40 1749.70 L 1710.40 1763.60 L 1653.40 1763.60 L 1653.40 1828.80 L 1717.90 1828.80 L 1717.90 1842.50 L 1573.70 1842.50 L 1573.70 1828.80 Z M 1668.90 1784.20 L 1679.20 1775.70 L 1693.10 1790.30 L 1707.10 1805.60 L 1694.90 1815.40 L 1668.90 1784.20 Z" fill="#000000" fill-rule="nonzero" group-id="3" node-id="225" stroke="none" target-height="167.29993" target-width="181.5" target-x="1536.4" target-y="1685.3"></path><path d="M 1765.80 1780.50 L 1781.30 1778.30 L 1794.00 1776.10 L 1792.90 1788.60 L 1767.90 1792.90 L 1749.70 1796.40 L 1747.50 1783.10 L 1751.20 1779.00 L 1755.50 1773.40 L 1760.50 1766.20 L 1766.30 1757.00 L 1772.90 1745.50 L 1747.20 1747.50 L 1743.80 1736.30 L 1748.70 1728.60 L 1753.60 1720.00 L 1758.70 1710.10 L 1764.00 1699.10 L 1769.40 1686.70 L 1775.00 1672.80 L 1788.80 1677.60 L 1773.10 1709.40 L 1765.90 1722.80 L 1759.00 1734.80 L 1778.80 1734.50 L 1789.40 1713.60 L 1802.30 1719.50 L 1784.50 1750.10 L 1765.80 1780.50 Z M 1744.40 1823.30 L 1765.50 1819.70 L 1801.90 1812.60 L 1800.60 1824.20 L 1747.70 1837.30 L 1744.40 1823.30 Z M 1796.20 1777.20 L 1802.00 1768.50 L 1807.60 1759.30 L 1813.00 1749.60 L 1818.10 1739.30 L 1823.10 1728.40 L 1827.80 1716.90 L 1840.70 1721.10 L 1836.10 1731.70 L 1826.80 1751.40 L 1826.80 1852.80 L 1813.90 1852.80 L 1813.90 1774.70 L 1803.40 1791.00 L 1799.00 1781.80 L 1796.20 1777.20 Z M 1806.00 1696.00 L 1861.60 1696.00 L 1854.50 1683.50 L 1850.10 1676.70 L 1862.30 1670.80 L 1868.10 1678.70 L 1872.70 1685.50 L 1876.10 1691.20 L 1866.60 1696.00 L 1922.40 1696.00 L 1922.40 1723.00 L 1908.40 1723.00 L 1908.40 1708.60 L 1820.00 1708.60 L 1820.00 1725.60 L 1806.00 1725.60 L 1806.00 1696.00 Z M 1841.20 1727.00 L 1926.10 1727.00 L 1926.10 1739.20 L 1887.50 1739.20 L 1882.80 1757.50 L 1915.00 1757.50 L 1915.00 1852.50 L 1901.70 1852.50 L 1901.70 1843.40 L 1859.10 1843.40 L 1859.10 1852.50 L 1845.80 1852.50 L 1845.80 1757.50 L 1868.90 1757.50 L 1872.80 1739.20 L 1841.20 1739.20 L 1841.20 1727.00 Z M 1901.70 1769.50 L 1859.10 1769.50 L 1859.10 1794.50 L 1901.70 1794.50 L 1901.70 1769.50 Z M 1859.10 1831.40 L 1901.70 1831.40 L 1901.70 1806.30 L 1859.10 1806.30 L 1859.10 1831.40 Z" fill="#000000" fill-rule="nonzero" group-id="3" node-id="227" stroke="none" target-height="182" target-width="182.29993" target-x="1743.8" target-y="1670.8"></path><path d="M 1951.40 1787.50 L 1957.10 1778.60 L 1962.30 1769.50 L 1967.00 1760.20 L 1971.20 1750.70 L 1974.90 1741.10 L 1978.10 1731.20 L 1980.80 1721.10 L 1953.30 1721.10 L 1953.30 1708.60 L 1982.00 1708.60 L 1982.00 1672.20 L 1995.30 1672.20 L 1995.30 1708.60 L 2021.10 1708.60 L 2021.10 1721.10 L 1995.30 1721.10 L 1995.30 1751.70 L 2002.70 1744.40 L 2025.00 1765.40 L 2015.10 1775.50 L 1995.30 1754.70 L 1995.30 1852.10 L 1982.00 1852.10 L 1982.00 1753.20 L 1978.40 1764.00 L 1974.50 1773.70 L 1970.50 1782.50 L 1966.30 1790.40 L 1962.00 1797.50 L 1957.50 1803.80 L 1951.40 1787.50 Z M 2048.60 1698.10 L 2048.60 1759.10 L 2048.30 1771.10 L 2047.50 1782.20 L 2046.20 1792.50 L 2044.40 1801.90 L 2042.10 1810.60 L 2039.50 1818.60 L 2036.40 1826.00 L 2033.00 1832.80 L 2029.20 1839.00 L 2025.00 1844.80 L 2020.50 1850.00 L 2015.60 1854.90 L 2004.70 1842.30 L 2009.50 1837.70 L 2013.90 1832.70 L 2017.80 1827.20 L 2021.40 1821.20 L 2024.50 1814.80 L 2027.20 1807.70 L 2029.50 1800.10 L 2031.40 1791.80 L 2032.70 1782.80 L 2033.60 1773.00 L 2033.90 1762.40 L 2033.90 1684.10 L 2102.50 1684.10 L 2102.50 1822.80 L 2102.70 1826.00 L 2103.40 1828.30 L 2104.30 1829.90 L 2105.50 1831.10 L 2107.00 1831.70 L 2113.20 1832.00 L 2114.90 1831.70 L 2116.30 1831.00 L 2117.70 1829.80 L 2118.90 1828.00 L 2119.90 1825.40 L 2120.70 1821.70 L 2122.70 1802.00 L 2123.30 1791.00 L 2137.30 1796.90 L 2134.00 1826.80 L 2133.10 1831.40 L 2131.80 1835.20 L 2130.30 1838.30 L 2128.50 1840.80 L 2126.50 1842.80 L 2124.20 1844.30 L 2121.60 1845.40 L 2118.60 1846.10 L 2115.20 1846.40 L 2105.40 1846.40 L 2101.60 1846.10 L 2098.40 1845.30 L 2095.70 1844.10 L 2093.40 1842.40 L 2091.50 1840.30 L 2090.00 1837.60 L 2088.80 1834.30 L 2088.00 1830.30 L 2087.70 1825.30 L 2087.70 1698.10 L 2048.60 1698.10 Z" fill="#000000" fill-rule="nonzero" group-id="3" node-id="229" stroke="none" target-height="182.70007" target-width="185.90002" target-x="1951.4" target-y="1672.2"></path></g><g node-id="367"><path d="M 972.70 2266.30 L 972.50 2274.50 L 971.90 2282.60 L 970.80 2290.60 L 969.40 2298.50 L 967.50 2306.40 L 962.50 2321.70 L 959.40 2329.00 L 956.00 2336.30 L 952.10 2343.40 L 947.90 2350.20 L 943.40 2356.90 L 938.50 2363.30 L 933.20 2369.50 L 927.60 2375.40 L 921.60 2381.10 L 915.40 2386.30 L 909.00 2391.30 L 902.40 2395.80 L 895.50 2400.00 L 888.40 2403.80 L 881.20 2407.30 L 873.80 2410.40 L 866.20 2413.00 L 858.50 2415.30 L 850.70 2417.20 L 842.80 2418.70 L 834.80 2419.80 L 826.70 2420.40 L 818.50 2420.60 L 810.20 2420.40 L 802.10 2419.80 L 794.20 2418.70 L 786.20 2417.20 L 778.40 2415.30 L 770.70 2413.00 L 763.10 2410.40 L 755.70 2407.30 L 748.50 2403.80 L 741.40 2400.00 L 734.50 2395.80 L 727.90 2391.30 L 721.50 2386.30 L 715.30 2381.10 L 709.40 2375.40 L 703.70 2369.50 L 698.40 2363.30 L 693.50 2356.90 L 689.00 2350.20 L 684.80 2343.40 L 680.90 2336.30 L 677.50 2329.00 L 674.40 2321.70 L 671.80 2314.10 L 669.50 2306.40 L 667.60 2298.50 L 666.10 2290.60 L 665.00 2282.60 L 664.40 2274.50 L 664.20 2266.30 L 664.40 2258.10 L 665.00 2250.00 L 666.10 2242.00 L 667.60 2234.10 L 669.50 2226.30 L 671.80 2218.60 L 674.40 2211.00 L 677.50 2203.60 L 680.90 2196.40 L 684.80 2189.30 L 689.00 2182.40 L 693.50 2175.80 L 698.40 2169.40 L 703.70 2163.20 L 709.40 2157.20 L 715.30 2151.60 L 721.50 2146.30 L 727.90 2141.40 L 734.50 2136.90 L 741.40 2132.70 L 748.50 2128.80 L 755.70 2125.40 L 763.10 2122.30 L 770.70 2119.60 L 778.40 2117.30 L 786.20 2115.40 L 794.20 2114.00 L 802.10 2112.90 L 810.20 2112.30 L 818.50 2112.00 L 826.70 2112.30 L 834.80 2112.90 L 842.80 2114.00 L 850.70 2115.40 L 858.50 2117.30 L 866.20 2119.60 L 873.80 2122.30 L 881.20 2125.40 L 888.40 2128.80 L 895.50 2132.70 L 902.40 2136.90 L 909.00 2141.40 L 915.40 2146.30 L 921.60 2151.60 L 927.60 2157.20 L 933.20 2163.20 L 938.50 2169.40 L 943.40 2175.80 L 947.90 2182.40 L 952.10 2189.30 L 956.00 2196.40 L 959.40 2203.60 L 962.50 2211.00 L 965.20 2218.60 L 967.50 2226.30 L 969.40 2234.10 L 970.80 2242.00 L 971.90 2250.00 L 972.50 2258.10 L 972.70 2266.30 Z" fill="url(#SVGID_2_)" fill-rule="evenodd" group-id="4" node-id="234" stroke="#bababa" stroke-linecap="butt" stroke-width="10" target-height="308.6001" target-width="308.5" target-x="664.2" target-y="2112"></path><path d="M 836.70 2342.10 L 833.10 2343.40 L 829.90 2345.00 L 826.90 2347.00 L 824.20 2349.40 L 821.90 2352.10 L 819.90 2355.10 L 818.30 2358.30 L 817.20 2361.60 L 816.40 2365.10 L 816.20 2368.70 L 816.40 2372.40 L 817.10 2376.10 L 818.30 2379.80 L 820.00 2383.00 L 822.00 2386.00 L 824.40 2388.70 L 827.10 2391.00 L 830.00 2393.00 L 833.20 2394.60 L 836.60 2395.70 L 840.10 2396.50 L 843.70 2396.70 L 847.40 2396.50 L 851.10 2395.80 L 854.70 2394.50 L 858.00 2392.90 L 861.00 2390.90 L 863.70 2388.50 L 866.00 2385.80 L 868.00 2382.80 L 869.60 2379.70 L 870.70 2376.30 L 871.40 2372.80 L 871.70 2369.20 L 871.50 2365.50 L 870.70 2361.80 L 869.50 2358.20 L 867.90 2354.90 L 865.80 2351.90 L 863.40 2349.20 L 860.80 2346.90 L 857.80 2344.90 L 854.60 2343.30 L 851.30 2342.20 L 847.80 2341.40 L 844.20 2341.20 L 840.50 2341.40 L 836.70 2342.10 Z" fill="#a5a5a5" fill-rule="evenodd" group-id="4" node-id="236" stroke="none" target-height="55.5" target-width="55.5" target-x="816.2" target-y="2341.2"></path><path d="M 918.90 2243.10 L 915.30 2244.30 L 912.00 2245.90 L 909.10 2248.00 L 906.40 2250.40 L 904.00 2253.00 L 902.10 2256.00 L 900.50 2259.20 L 899.30 2262.50 L 898.60 2266.10 L 898.30 2269.70 L 898.60 2273.30 L 899.30 2277.10 L 900.50 2280.70 L 902.20 2284.00 L 904.20 2287.00 L 906.60 2289.60 L 909.30 2292.00 L 912.20 2293.90 L 915.40 2295.50 L 918.80 2296.70 L 922.30 2297.40 L 925.90 2297.70 L 929.50 2297.40 L 933.30 2296.70 L 936.90 2295.50 L 940.20 2293.80 L 943.20 2291.80 L 948.20 2286.70 L 950.20 2283.80 L 951.70 2280.60 L 952.90 2277.20 L 953.60 2273.70 L 953.90 2270.10 L 953.70 2266.50 L 952.90 2262.70 L 951.70 2259.10 L 950.10 2255.80 L 948.00 2252.80 L 945.60 2250.10 L 943.00 2247.80 L 940.00 2245.80 L 936.80 2244.30 L 933.50 2243.10 L 929.90 2242.40 L 926.30 2242.10 L 922.70 2242.30 L 918.90 2243.10 Z" fill="#a5a5a5" fill-rule="evenodd" group-id="4" node-id="238" stroke="none" target-height="55.599854" target-width="55.600037" target-x="898.3" target-y="2242.1"></path><path d="M 723.00 2289.30 L 719.40 2290.60 L 716.10 2292.20 L 713.10 2294.20 L 710.40 2296.60 L 708.10 2299.30 L 706.10 2302.30 L 704.50 2305.50 L 703.40 2308.80 L 702.70 2312.30 L 702.40 2315.90 L 702.60 2319.60 L 703.40 2323.30 L 704.60 2327.00 L 706.20 2330.20 L 708.30 2333.20 L 710.70 2335.90 L 713.30 2338.20 L 716.30 2340.20 L 719.50 2341.80 L 722.80 2342.90 L 726.40 2343.70 L 729.90 2343.90 L 733.60 2343.70 L 737.40 2343.00 L 741.00 2341.70 L 744.30 2340.10 L 747.20 2338.10 L 749.90 2335.70 L 752.20 2333.00 L 754.20 2330.00 L 755.80 2326.90 L 757.00 2323.50 L 757.70 2320.00 L 757.90 2316.40 L 757.70 2312.70 L 757.00 2309.00 L 755.80 2305.40 L 754.10 2302.10 L 752.10 2299.10 L 749.70 2296.40 L 747.00 2294.10 L 744.10 2292.10 L 740.90 2290.50 L 737.50 2289.40 L 734.00 2288.70 L 730.40 2288.40 L 726.70 2288.60 L 723.00 2289.30 Z" fill="#a5a5a5" fill-rule="evenodd" group-id="4" node-id="240" stroke="none" target-height="55.5" target-width="55.5" target-x="702.4" target-y="2288.4"></path><path d="M 814.40 2240.00 L 810.80 2241.20 L 807.50 2242.90 L 804.60 2244.90 L 801.90 2247.30 L 799.50 2250.00 L 797.60 2252.90 L 796.00 2256.10 L 794.80 2259.50 L 794.10 2263.00 L 793.80 2266.60 L 794.10 2270.20 L 794.80 2274.00 L 796.00 2277.60 L 797.70 2280.90 L 799.70 2283.90 L 802.10 2286.60 L 804.80 2288.90 L 807.70 2290.90 L 810.90 2292.40 L 814.30 2293.60 L 817.80 2294.30 L 821.40 2294.60 L 825.00 2294.40 L 828.80 2293.60 L 832.40 2292.40 L 835.70 2290.80 L 838.70 2288.70 L 841.40 2286.30 L 843.70 2283.70 L 845.70 2280.70 L 847.20 2277.50 L 848.40 2274.20 L 849.10 2270.60 L 849.40 2267.00 L 849.20 2263.40 L 848.40 2259.60 L 847.20 2256.00 L 845.60 2252.70 L 843.50 2249.70 L 841.10 2247.10 L 838.50 2244.70 L 835.50 2242.80 L 832.30 2241.20 L 829.00 2240.00 L 825.40 2239.30 L 821.80 2239.00 L 818.20 2239.30 L 814.40 2240.00 Z" fill="#bababa" fill-rule="evenodd" group-id="4" node-id="242" stroke="none" target-height="55.600098" target-width="55.600037" target-x="793.8" target-y="2239"></path><path d="M 855.80 2141.30 L 852.20 2142.50 L 848.90 2144.20 L 845.90 2146.20 L 843.20 2148.60 L 840.90 2151.30 L 838.90 2154.20 L 837.40 2157.40 L 836.20 2160.80 L 835.50 2164.30 L 835.20 2167.90 L 835.40 2171.50 L 836.20 2175.30 L 837.40 2178.90 L 839.00 2182.20 L 841.10 2185.20 L 843.50 2187.90 L 846.10 2190.20 L 849.10 2192.20 L 852.30 2193.70 L 855.60 2194.90 L 859.20 2195.60 L 862.80 2195.90 L 866.40 2195.70 L 870.20 2194.90 L 873.80 2193.70 L 877.10 2192.10 L 880.00 2190.00 L 882.70 2187.60 L 885.10 2185.00 L 887.00 2182.00 L 888.60 2178.80 L 889.80 2175.50 L 890.50 2171.90 L 890.80 2168.30 L 890.50 2164.70 L 889.80 2160.90 L 888.60 2157.30 L 886.90 2154.00 L 884.90 2151.10 L 882.50 2148.40 L 879.80 2146.00 L 876.90 2144.10 L 873.70 2142.50 L 870.30 2141.30 L 866.80 2140.60 L 863.20 2140.30 L 859.60 2140.60 L 855.80 2141.30 Z" fill="#a5a5a5" fill-rule="evenodd" group-id="4" node-id="244" stroke="none" target-height="55.599854" target-width="55.599976" target-x="835.2" target-y="2140.3"></path><path d="M 734.40 2168.50 L 730.80 2169.80 L 727.50 2171.40 L 724.50 2173.40 L 721.90 2175.80 L 719.50 2178.50 L 717.60 2181.40 L 716.00 2184.60 L 714.80 2188.00 L 714.10 2191.50 L 713.80 2195.10 L 714.10 2198.80 L 714.80 2202.50 L 716.00 2206.10 L 717.70 2209.40 L 719.70 2212.40 L 722.10 2215.10 L 724.80 2217.40 L 727.70 2219.40 L 730.90 2221.00 L 734.20 2222.10 L 737.80 2222.80 L 741.40 2223.10 L 745.00 2222.90 L 748.80 2222.10 L 752.40 2220.90 L 755.70 2219.30 L 758.70 2217.20 L 761.40 2214.80 L 763.70 2212.20 L 765.60 2209.20 L 767.20 2206.00 L 768.40 2202.70 L 769.10 2199.20 L 769.40 2195.60 L 769.20 2191.90 L 768.40 2188.10 L 767.20 2184.50 L 765.50 2181.30 L 763.50 2178.30 L 761.10 2175.60 L 758.40 2173.30 L 755.50 2171.30 L 752.30 2169.70 L 749.00 2168.60 L 745.40 2167.80 L 741.80 2167.60 L 738.20 2167.80 L 734.40 2168.50 Z" fill="#a5a5a5" fill-rule="evenodd" group-id="4" node-id="246" stroke="none" target-height="55.5" target-width="55.600037" target-x="713.8" target-y="2167.6"></path></g><g node-id="368"><path d="M 2088.70 2266.30 L 2088.50 2274.50 L 2087.90 2282.60 L 2086.80 2290.60 L 2085.40 2298.50 L 2083.50 2306.40 L 2078.50 2321.70 L 2075.40 2329.00 L 2072.00 2336.30 L 2068.10 2343.40 L 2063.90 2350.20 L 2059.40 2356.90 L 2054.50 2363.30 L 2049.20 2369.50 L 2043.60 2375.40 L 2037.60 2381.10 L 2025.00 2391.30 L 2018.40 2395.80 L 2011.50 2400.00 L 2004.40 2403.80 L 1997.20 2407.30 L 1989.80 2410.40 L 1982.20 2413.00 L 1974.50 2415.30 L 1966.70 2417.20 L 1958.80 2418.70 L 1950.80 2419.80 L 1942.70 2420.40 L 1934.50 2420.60 L 1926.20 2420.40 L 1918.10 2419.80 L 1910.20 2418.70 L 1902.20 2417.20 L 1894.40 2415.30 L 1886.70 2413.00 L 1879.10 2410.40 L 1864.50 2403.80 L 1857.40 2400.00 L 1850.50 2395.80 L 1843.90 2391.30 L 1837.50 2386.30 L 1831.30 2381.10 L 1825.40 2375.40 L 1819.70 2369.50 L 1814.40 2363.30 L 1809.50 2356.90 L 1805.00 2350.20 L 1800.80 2343.40 L 1796.90 2336.30 L 1793.50 2329.00 L 1787.80 2314.10 L 1785.50 2306.40 L 1783.60 2298.50 L 1782.10 2290.60 L 1781.00 2282.60 L 1780.40 2274.50 L 1780.20 2266.30 L 1780.40 2258.10 L 1781.00 2250.00 L 1782.10 2242.00 L 1783.60 2234.10 L 1785.50 2226.30 L 1787.80 2218.60 L 1790.40 2211.00 L 1793.50 2203.60 L 1796.90 2196.40 L 1800.80 2189.30 L 1805.00 2182.40 L 1809.50 2175.80 L 1814.40 2169.40 L 1819.70 2163.20 L 1825.40 2157.20 L 1831.30 2151.60 L 1837.50 2146.30 L 1843.90 2141.40 L 1850.50 2136.90 L 1857.40 2132.70 L 1864.50 2128.80 L 1871.70 2125.40 L 1879.10 2122.30 L 1886.70 2119.60 L 1894.40 2117.30 L 1902.20 2115.40 L 1910.20 2114.00 L 1918.10 2112.90 L 1926.20 2112.30 L 1934.50 2112.00 L 1942.70 2112.30 L 1950.80 2112.90 L 1958.80 2114.00 L 1966.70 2115.40 L 1974.50 2117.30 L 1989.80 2122.30 L 2004.40 2128.80 L 2011.50 2132.70 L 2018.40 2136.90 L 2025.00 2141.40 L 2031.40 2146.30 L 2037.60 2151.60 L 2043.60 2157.20 L 2049.20 2163.20 L 2054.50 2169.40 L 2059.40 2175.80 L 2063.90 2182.40 L 2068.10 2189.30 L 2072.00 2196.40 L 2075.40 2203.60 L 2081.20 2218.60 L 2083.50 2226.30 L 2085.40 2234.10 L 2086.80 2242.00 L 2087.90 2250.00 L 2088.50 2258.10 L 2088.70 2266.30 Z" fill="url(#SVGID_3_)" fill-rule="evenodd" group-id="5" node-id="251" stroke="#bababa" stroke-linecap="butt" stroke-width="10" target-height="308.6001" target-width="308.5" target-x="1780.2" target-y="2112"></path><path d="M 1952.80 2342.10 L 1949.10 2343.40 L 1945.90 2345.00 L 1942.90 2347.00 L 1940.20 2349.40 L 1937.90 2352.10 L 1935.90 2355.10 L 1934.30 2358.30 L 1933.20 2361.60 L 1932.40 2365.10 L 1932.20 2368.70 L 1932.40 2372.40 L 1933.10 2376.10 L 1934.30 2379.80 L 1936.00 2383.00 L 1938.00 2386.00 L 1940.40 2388.70 L 1943.10 2391.00 L 1946.00 2393.00 L 1949.20 2394.60 L 1952.60 2395.70 L 1956.10 2396.50 L 1959.70 2396.70 L 1963.40 2396.50 L 1967.10 2395.80 L 1970.70 2394.50 L 1974.00 2392.90 L 1977.00 2390.90 L 1979.70 2388.50 L 1982.00 2385.80 L 1985.60 2379.70 L 1986.70 2376.30 L 1987.40 2372.80 L 1987.70 2369.20 L 1987.50 2365.50 L 1986.70 2361.80 L 1985.50 2358.20 L 1983.90 2354.90 L 1981.80 2351.90 L 1979.40 2349.20 L 1976.80 2346.90 L 1973.80 2344.90 L 1967.30 2342.20 L 1963.80 2341.40 L 1960.20 2341.20 L 1956.50 2341.40 L 1952.80 2342.10 Z" fill="#a5a5a5" fill-rule="evenodd" group-id="5" node-id="253" stroke="none" target-height="55.5" target-width="55.5" target-x="1932.2" target-y="2341.2"></path><path d="M 2034.90 2243.10 L 2031.30 2244.30 L 2028.00 2245.90 L 2025.10 2248.00 L 2022.40 2250.40 L 2018.10 2256.00 L 2016.50 2259.20 L 2015.30 2262.50 L 2014.60 2266.10 L 2014.30 2269.70 L 2014.60 2273.30 L 2015.30 2277.10 L 2016.50 2280.70 L 2018.20 2284.00 L 2020.20 2287.00 L 2022.60 2289.60 L 2025.30 2292.00 L 2028.20 2293.90 L 2031.40 2295.50 L 2034.80 2296.70 L 2038.30 2297.40 L 2041.90 2297.70 L 2045.50 2297.40 L 2049.30 2296.70 L 2052.90 2295.50 L 2056.20 2293.80 L 2059.20 2291.80 L 2061.90 2289.40 L 2064.20 2286.70 L 2066.20 2283.80 L 2067.70 2280.60 L 2068.90 2277.20 L 2069.60 2273.70 L 2069.90 2270.10 L 2069.70 2266.50 L 2068.90 2262.70 L 2067.70 2259.10 L 2066.10 2255.80 L 2064.00 2252.80 L 2061.60 2250.10 L 2059.00 2247.80 L 2056.00 2245.80 L 2052.80 2244.30 L 2049.50 2243.10 L 2045.90 2242.40 L 2042.30 2242.10 L 2038.70 2242.30 L 2034.90 2243.10 Z" fill="#a5a5a5" fill-rule="evenodd" group-id="5" node-id="255" stroke="none" target-height="55.599854" target-width="55.599854" target-x="2014.3" target-y="2242.1"></path><path d="M 1839.00 2289.30 L 1835.40 2290.60 L 1832.10 2292.20 L 1829.10 2294.20 L 1826.40 2296.60 L 1824.10 2299.30 L 1822.10 2302.30 L 1819.40 2308.80 L 1818.70 2312.30 L 1818.40 2315.90 L 1818.60 2319.60 L 1819.40 2323.30 L 1822.20 2330.20 L 1824.30 2333.20 L 1826.70 2335.90 L 1829.30 2338.20 L 1832.30 2340.20 L 1835.50 2341.80 L 1838.80 2342.90 L 1842.40 2343.70 L 1845.90 2343.90 L 1849.60 2343.70 L 1853.40 2343.00 L 1857.00 2341.70 L 1860.30 2340.10 L 1863.20 2338.10 L 1865.90 2335.70 L 1868.30 2333.00 L 1870.20 2330.00 L 1871.80 2326.90 L 1873.00 2323.50 L 1873.70 2320.00 L 1873.90 2316.40 L 1873.70 2312.70 L 1873.00 2309.00 L 1871.80 2305.40 L 1870.10 2302.10 L 1868.10 2299.10 L 1865.70 2296.40 L 1863.00 2294.10 L 1860.10 2292.10 L 1856.90 2290.50 L 1853.50 2289.40 L 1850.00 2288.70 L 1846.40 2288.40 L 1842.70 2288.60 L 1839.00 2289.30 Z" fill="#a5a5a5" fill-rule="evenodd" group-id="5" node-id="257" stroke="none" target-height="55.5" target-width="55.5" target-x="1818.4" target-y="2288.4"></path><path d="M 1930.40 2240.00 L 1926.80 2241.20 L 1923.50 2242.90 L 1920.60 2244.90 L 1917.90 2247.30 L 1915.50 2250.00 L 1913.60 2252.90 L 1910.80 2259.50 L 1910.10 2263.00 L 1909.80 2266.60 L 1910.10 2270.20 L 1910.80 2274.00 L 1912.00 2277.60 L 1913.70 2280.90 L 1915.70 2283.90 L 1918.10 2286.60 L 1920.80 2288.90 L 1923.70 2290.90 L 1926.90 2292.40 L 1930.30 2293.60 L 1933.80 2294.30 L 1937.40 2294.60 L 1941.00 2294.40 L 1944.80 2293.60 L 1948.40 2292.40 L 1951.70 2290.80 L 1954.70 2288.70 L 1957.40 2286.30 L 1959.70 2283.70 L 1961.70 2280.70 L 1963.20 2277.50 L 1965.10 2270.60 L 1965.40 2267.00 L 1965.20 2263.40 L 1964.40 2259.60 L 1963.20 2256.00 L 1961.60 2252.70 L 1959.50 2249.70 L 1957.10 2247.10 L 1954.50 2244.70 L 1951.50 2242.80 L 1948.30 2241.20 L 1945.00 2240.00 L 1941.40 2239.30 L 1937.80 2239.00 L 1934.20 2239.30 L 1930.40 2240.00 Z" fill="#bababa" fill-rule="evenodd" group-id="5" node-id="259" stroke="none" target-height="55.600098" target-width="55.599976" target-x="1909.8" target-y="2239"></path><path d="M 1971.80 2141.30 L 1968.20 2142.50 L 1961.90 2146.20 L 1959.20 2148.60 L 1956.90 2151.30 L 1954.90 2154.20 L 1953.40 2157.40 L 1952.20 2160.80 L 1951.50 2164.30 L 1951.20 2167.90 L 1951.40 2171.50 L 1952.20 2175.30 L 1953.40 2178.90 L 1955.00 2182.20 L 1957.10 2185.20 L 1959.50 2187.90 L 1962.10 2190.20 L 1965.10 2192.20 L 1968.30 2193.70 L 1971.60 2194.90 L 1975.20 2195.60 L 1978.80 2195.90 L 1982.40 2195.70 L 1986.20 2194.90 L 1989.80 2193.70 L 1993.10 2192.10 L 1996.00 2190.00 L 1998.70 2187.60 L 2001.10 2185.00 L 2003.00 2182.00 L 2004.60 2178.80 L 2005.80 2175.50 L 2006.50 2171.90 L 2006.80 2168.30 L 2006.50 2164.70 L 2005.80 2160.90 L 2004.60 2157.30 L 2002.90 2154.00 L 2000.90 2151.10 L 1998.50 2148.40 L 1995.80 2146.00 L 1992.90 2144.10 L 1989.70 2142.50 L 1986.30 2141.30 L 1982.80 2140.60 L 1979.20 2140.30 L 1975.60 2140.60 L 1971.80 2141.30 Z" fill="#a5a5a5" fill-rule="evenodd" group-id="5" node-id="261" stroke="none" target-height="55.599854" target-width="55.600098" target-x="1951.2" target-y="2140.3"></path><path d="M 1850.40 2168.50 L 1846.80 2169.80 L 1843.50 2171.40 L 1840.50 2173.40 L 1837.90 2175.80 L 1835.50 2178.50 L 1833.60 2181.40 L 1832.00 2184.60 L 1830.80 2188.00 L 1830.10 2191.50 L 1829.80 2195.10 L 1830.10 2198.80 L 1830.80 2202.50 L 1832.00 2206.10 L 1833.70 2209.40 L 1835.70 2212.40 L 1838.10 2215.10 L 1840.80 2217.40 L 1843.70 2219.40 L 1846.90 2221.00 L 1850.20 2222.10 L 1853.80 2222.80 L 1857.40 2223.10 L 1861.00 2222.90 L 1864.80 2222.10 L 1868.40 2220.90 L 1871.70 2219.30 L 1874.70 2217.20 L 1877.40 2214.80 L 1881.60 2209.20 L 1883.20 2206.00 L 1884.40 2202.70 L 1885.10 2199.20 L 1885.40 2195.60 L 1885.20 2191.90 L 1884.40 2188.10 L 1883.20 2184.50 L 1881.50 2181.30 L 1879.50 2178.30 L 1877.10 2175.60 L 1874.40 2173.30 L 1871.50 2171.30 L 1868.30 2169.70 L 1865.00 2168.60 L 1861.40 2167.80 L 1857.80 2167.60 L 1854.20 2167.80 L 1850.40 2168.50 Z" fill="#a5a5a5" fill-rule="evenodd" group-id="5" node-id="263" stroke="none" target-height="55.5" target-width="55.599976" target-x="1829.8" target-y="2167.6"></path></g><path d="M 476.70 1298.50 L 466.70 1341.90 L 458.90 1380.80 L 454.50 1404.40 L 445.90 1456.90 L 441.80 1485.50 L 437.90 1516.40 L 433.40 1558.80 L 429.70 1603.50 L 427.30 1649.50 L 426.70 1672.80 L 426.50 1696.20 L 426.70 1719.80 L 427.40 1747.90 L 429.60 1802.60 L 432.00 1843.10 L 434.90 1882.00 L 438.20 1920.20 L 441.70 1956.30 L 449.50 2023.70 L 457.40 2082.60 L 464.80 2131.40 L 470.90 2168.30 L 476.70 2199.80" fill="none" node-id="266" stroke="url(#SVGID_4_)" stroke-linecap="butt" stroke-width="10" target-height="901.30005" target-width="50.200012" target-x="426.5" target-y="1298.5"></path><path d="M 2443.90 1298.50 L 2449.70 1328.00 L 2455.80 1361.80 L 2463.10 1405.60 L 2470.80 1457.40 L 2478.30 1515.20 L 2481.60 1545.50 L 2484.60 1576.80 L 2487.20 1608.50 L 2489.30 1640.40 L 2491.00 1682.90 L 2491.40 1726.30 L 2490.60 1772.10 L 2489.20 1806.80 L 2487.30 1841.40 L 2484.90 1875.90 L 2479.00 1943.20 L 2472.10 2006.50 L 2464.80 2064.20 L 2454.60 2135.00 L 2443.90 2199.80" fill="none" node-id="268" stroke="url(#SVGID_5_)" stroke-linecap="butt" stroke-width="10" target-height="901.30005" target-width="47.5" target-x="2443.9" target-y="1298.5"></path><g node-id="369"><path d="M 1875.90 1290.30 L 1875.60 1293.40 L 1874.10 1299.10 L 1872.80 1301.70 L 1869.20 1306.30 L 1864.60 1309.90 L 1862.00 1311.20 L 1856.30 1312.80 L 1853.20 1313.00 L 1228.40 1314.50 L 1225.30 1314.30 L 1222.30 1313.70 L 1219.50 1312.70 L 1216.90 1311.40 L 1212.30 1307.80 L 1208.80 1303.30 L 1207.40 1300.60 L 1206.50 1297.90 L 1205.80 1294.90 L 1205.60 1291.80 L 1204.80 925.90 L 1205.00 922.70 L 1205.60 919.80 L 1207.90 914.40 L 1211.40 909.80 L 1216.00 906.30 L 1218.60 904.90 L 1221.40 904.00 L 1227.40 903.10 L 1852.30 901.70 L 1855.40 901.90 L 1858.30 902.50 L 1861.10 903.50 L 1863.70 904.80 L 1868.30 908.30 L 1871.90 912.90 L 1873.20 915.50 L 1874.20 918.30 L 1874.80 921.20 L 1875.00 924.30 L 1875.90 1290.30 Z" fill="#aaaaaa" fill-rule="evenodd" group-id="6" node-id="272" stroke="none" target-height="412.8" target-width="671.1" target-x="1204.8" target-y="901.7"></path></g><g node-id="370"><path d="M 966.60 1171.50 L 966.40 1179.40 L 965.70 1187.00 L 964.70 1194.50 L 963.30 1201.90 L 961.60 1209.10 L 958.80 1218.00 L 955.50 1226.60 L 951.70 1234.90 L 947.30 1243.00 L 942.40 1250.70 L 937.10 1258.10 L 931.40 1265.10 L 925.20 1271.70 L 918.50 1278.00 L 911.60 1283.70 L 904.20 1289.10 L 896.50 1294.00 L 888.50 1298.40 L 880.20 1302.20 L 871.60 1305.60 L 862.70 1308.40 L 855.50 1310.20 L 848.10 1311.60 L 840.60 1312.70 L 833.00 1313.30 L 825.20 1313.60 L 552.40 1314.20 L 544.60 1314.00 L 536.90 1313.40 L 529.40 1312.40 L 522.10 1311.00 L 514.80 1309.20 L 505.90 1306.40 L 497.30 1303.10 L 489.00 1299.30 L 481.00 1294.90 L 473.20 1290.10 L 465.90 1284.80 L 458.90 1279.00 L 452.20 1272.80 L 446.00 1266.20 L 440.20 1259.20 L 434.80 1251.90 L 429.90 1244.10 L 425.50 1236.10 L 421.70 1227.80 L 418.30 1219.20 L 415.50 1210.30 L 413.70 1203.10 L 412.30 1195.80 L 411.20 1188.30 L 410.60 1180.60 L 410.40 1172.80 L 410.20 1086.90 L 410.40 1079.10 L 411.00 1071.40 L 412.00 1063.90 L 413.40 1056.60 L 415.20 1049.30 L 417.90 1040.40 L 421.20 1031.80 L 425.10 1023.50 L 429.40 1015.50 L 434.30 1007.70 L 439.60 1000.40 L 445.40 993.40 L 451.60 986.70 L 458.20 980.50 L 465.20 974.70 L 472.50 969.40 L 480.20 964.40 L 488.20 960.00 L 496.50 956.20 L 505.10 952.80 L 514.00 950.00 L 521.20 948.20 L 528.60 946.80 L 536.10 945.70 L 543.70 945.10 L 551.60 944.90 L 824.30 944.20 L 832.10 944.40 L 839.80 945.10 L 847.30 946.10 L 854.70 947.50 L 861.90 949.20 L 870.80 952.00 L 879.40 955.30 L 887.70 959.10 L 895.70 963.50 L 903.50 968.40 L 910.90 973.70 L 917.90 979.40 L 924.50 985.60 L 930.70 992.30 L 936.50 999.20 L 941.90 1006.60 L 946.80 1014.30 L 951.20 1022.30 L 955.00 1030.60 L 958.40 1039.20 L 961.20 1048.10 L 963.00 1055.30 L 964.40 1062.70 L 965.50 1070.20 L 966.10 1077.80 L 966.40 1085.60 L 966.60 1171.50 Z" fill="#aaaaaa" fill-rule="evenodd" group-id="7" node-id="277" stroke="none" target-height="369.99994" target-width="556.39996" target-x="410.2" target-y="944.2"></path></g><g node-id="371"><path d="M 1288.70 1410.20 L 1288.00 1419.40 L 1285.90 1428.10 L 1283.70 1433.60 L 1281.00 1438.80 L 1277.80 1443.60 L 1274.10 1448.20 L 1270.10 1452.30 L 1265.60 1456.00 L 1260.70 1459.20 L 1255.50 1461.90 L 1250.00 1464.10 L 1245.80 1465.30 L 1236.80 1466.80 L 1232.20 1467.00 L 829.10 1467.90 L 819.90 1467.20 L 811.20 1465.10 L 805.70 1462.90 L 800.50 1460.20 L 795.70 1457.00 L 791.10 1453.30 L 787.00 1449.30 L 783.30 1444.80 L 780.10 1439.90 L 777.40 1434.70 L 775.20 1429.20 L 773.10 1420.60 L 772.30 1411.40 L 772.10 1312.80 L 772.30 1308.10 L 773.70 1299.20 L 774.90 1294.90 L 777.10 1289.40 L 779.80 1284.20 L 783.00 1279.40 L 786.60 1274.80 L 790.70 1270.70 L 795.20 1267.00 L 800.10 1263.80 L 805.30 1261.10 L 810.80 1258.90 L 819.40 1256.80 L 828.60 1256.00 L 1231.70 1255.10 L 1240.90 1255.80 L 1249.50 1257.90 L 1255.10 1260.10 L 1260.20 1262.80 L 1265.10 1266.00 L 1269.60 1269.60 L 1273.70 1273.70 L 1277.40 1278.20 L 1280.70 1283.10 L 1283.40 1288.30 L 1285.50 1293.80 L 1287.70 1302.40 L 1288.50 1311.60 L 1288.70 1410.20 Z" fill="#c6c6c6" fill-rule="evenodd" group-id="8" node-id="282" stroke="none" target-height="212.80005" target-width="516.6" target-x="772.1" target-y="1255.1"></path></g><g node-id="372"><path d="M 2182.50 1410.30 L 2181.80 1419.50 L 2179.70 1428.20 L 2177.50 1433.70 L 2174.80 1438.90 L 2171.60 1443.70 L 2167.90 1448.30 L 2163.90 1452.40 L 2159.40 1456.10 L 2154.50 1459.30 L 2149.30 1462.00 L 2143.80 1464.20 L 2135.20 1466.30 L 2126.00 1467.10 L 1848.90 1467.80 L 1839.70 1467.00 L 1831.00 1464.90 L 1825.50 1462.70 L 1820.30 1460.00 L 1815.50 1456.90 L 1810.90 1453.20 L 1806.80 1449.10 L 1803.10 1444.60 L 1799.90 1439.70 L 1797.20 1434.60 L 1795.00 1429.00 L 1793.80 1424.80 L 1792.30 1415.90 L 1792.10 1411.20 L 1791.90 1312.60 L 1792.10 1307.90 L 1792.60 1303.40 L 1793.50 1299.00 L 1794.70 1294.80 L 1796.90 1289.20 L 1799.60 1284.10 L 1802.80 1279.20 L 1806.40 1274.70 L 1810.50 1270.60 L 1815.00 1266.90 L 1819.90 1263.60 L 1825.10 1260.90 L 1830.60 1258.80 L 1834.80 1257.50 L 1843.70 1256.00 L 1848.40 1255.80 L 2125.50 1255.20 L 2134.70 1255.90 L 2143.30 1258.00 L 2148.90 1260.20 L 2154.00 1262.90 L 2158.90 1266.10 L 2163.40 1269.80 L 2167.50 1273.80 L 2171.20 1278.30 L 2174.50 1283.20 L 2177.20 1288.40 L 2179.30 1293.90 L 2181.50 1302.50 L 2182.30 1311.70 L 2182.50 1410.30 Z" fill="#c6c6c6" fill-rule="evenodd" group-id="9" node-id="287" stroke="none" target-height="212.6001" target-width="390.59998" target-x="1791.9" target-y="1255.2"></path></g><g node-id="373"><path d="M 2548.40 1410.50 L 2547.70 1419.70 L 2545.50 1428.40 L 2543.40 1433.90 L 2540.70 1439.10 L 2537.50 1444.00 L 2533.80 1448.50 L 2529.70 1452.60 L 2525.20 1456.30 L 2520.40 1459.50 L 2515.20 1462.20 L 2509.70 1464.40 L 2501.10 1466.60 L 2491.80 1467.30 L 2421.30 1467.50 L 2416.60 1467.30 L 2407.70 1465.90 L 2403.40 1464.60 L 2397.90 1462.50 L 2392.70 1459.80 L 2387.80 1456.60 L 2383.30 1452.90 L 2379.20 1448.80 L 2375.50 1444.30 L 2372.30 1439.50 L 2369.60 1434.30 L 2367.40 1428.80 L 2365.30 1420.10 L 2364.50 1410.90 L 2364.30 1312.40 L 2365.00 1303.20 L 2367.10 1294.50 L 2369.30 1289.00 L 2372.00 1283.80 L 2375.20 1278.90 L 2378.80 1274.40 L 2382.90 1270.30 L 2387.40 1266.60 L 2392.30 1263.40 L 2397.40 1260.70 L 2403.00 1258.50 L 2411.60 1256.30 L 2420.80 1255.60 L 2491.40 1255.40 L 2496.00 1255.60 L 2505.00 1257.00 L 2509.20 1258.30 L 2514.70 1260.40 L 2519.90 1263.10 L 2524.80 1266.30 L 2529.30 1270.00 L 2533.40 1274.00 L 2537.10 1278.60 L 2540.30 1283.40 L 2543.00 1288.60 L 2545.20 1294.10 L 2546.50 1298.40 L 2547.40 1302.70 L 2548.20 1312.00 L 2548.40 1410.50 Z" fill="#c6c6c6" fill-rule="evenodd" group-id="10" node-id="292" stroke="none" target-height="212.09998" target-width="184.09985" target-x="2364.3" target-y="1255.4"></path></g><g node-id="374"><path d="M 2602.00 1324.80 L 2601.30 1334.00 L 2599.10 1342.60 L 2596.90 1348.10 L 2594.20 1353.30 L 2591.00 1358.20 L 2587.30 1362.70 L 2583.30 1366.80 L 2578.70 1370.50 L 2573.90 1373.70 L 2568.70 1376.40 L 2563.20 1378.60 L 2558.90 1379.80 L 2550.00 1381.30 L 2545.30 1381.50 L 2347.30 1381.50 L 2342.70 1381.30 L 2333.70 1379.80 L 2329.50 1378.60 L 2324.00 1376.40 L 2318.80 1373.70 L 2313.90 1370.50 L 2309.40 1366.80 L 2305.30 1362.70 L 2301.60 1358.20 L 2298.40 1353.30 L 2295.70 1348.10 L 2293.60 1342.60 L 2291.40 1334.00 L 2290.60 1324.80 L 2290.60 1001.70 L 2290.80 997.00 L 2291.40 992.50 L 2293.60 983.80 L 2295.70 978.30 L 2298.40 973.10 L 2301.60 968.20 L 2305.30 963.70 L 2309.40 959.60 L 2313.90 956.00 L 2318.80 952.80 L 2324.00 950.10 L 2329.50 947.90 L 2338.10 945.70 L 2347.30 945.00 L 2550.00 945.20 L 2554.50 945.70 L 2563.20 947.90 L 2568.70 950.10 L 2573.90 952.80 L 2578.70 956.00 L 2583.30 959.60 L 2587.30 963.70 L 2591.00 968.20 L 2594.20 973.10 L 2596.90 978.30 L 2599.10 983.80 L 2601.30 992.50 L 2602.00 1001.70 L 2602.00 1324.80 Z" fill="#444444" fill-rule="evenodd" group-id="11" node-id="297" stroke="none" target-height="436.5" target-width="311.3999" target-x="2290.6" target-y="945"></path></g><g node-id="375"><path d="M 963.60 946.90 L 968.40 953.20 L 972.70 959.50 L 976.60 966.00 L 980.20 972.60 L 983.30 979.30 L 986.70 988.00 L 989.60 996.80 L 991.80 1005.60 L 993.50 1014.60 L 994.50 1023.70 L 995.00 1032.80 L 994.90 1041.80 L 994.30 1050.90 L 993.10 1059.90 L 991.30 1068.80 L 988.90 1077.60 L 986.00 1086.30 L 982.50 1094.70 L 978.50 1102.90 L 973.90 1110.90 L 968.70 1118.70 L 964.30 1124.60 L 954.20 1135.90 L 948.70 1141.20 L 942.70 1146.30 L 799.70 1262.20 L 793.50 1267.00 L 787.20 1271.30 L 780.70 1275.30 L 774.10 1278.80 L 767.30 1281.90 L 758.70 1285.40 L 749.90 1288.20 L 741.00 1290.40 L 732.00 1292.10 L 723.00 1293.20 L 713.90 1293.70 L 704.80 1293.60 L 695.80 1292.90 L 686.70 1291.70 L 677.90 1289.90 L 669.10 1287.50 L 660.40 1284.60 L 652.00 1281.10 L 643.80 1277.10 L 635.80 1272.50 L 628.00 1267.40 L 622.00 1262.90 L 616.30 1258.10 L 610.80 1252.90 L 605.50 1247.30 L 600.40 1241.40 L 410.10 1006.60 L 405.30 1000.40 L 401.00 994.00 L 397.00 987.50 L 393.50 980.90 L 390.30 974.20 L 386.90 965.50 L 384.10 956.70 L 381.80 947.90 L 380.20 938.90 L 379.10 929.80 L 378.60 920.70 L 378.70 911.70 L 379.40 902.60 L 380.60 893.60 L 382.40 884.70 L 384.70 875.90 L 387.70 867.30 L 391.20 858.80 L 395.20 850.60 L 399.80 842.60 L 404.90 834.80 L 409.40 828.90 L 414.20 823.20 L 419.40 817.60 L 425.00 812.30 L 430.90 807.20 L 573.90 691.30 L 580.10 686.50 L 586.50 682.20 L 593.00 678.30 L 599.60 674.70 L 606.30 671.60 L 615.00 668.20 L 623.80 665.30 L 632.60 663.10 L 641.60 661.40 L 650.70 660.40 L 659.80 659.90 L 668.80 659.90 L 677.90 660.60 L 686.90 661.80 L 695.80 663.60 L 704.60 666.00 L 713.20 668.90 L 721.70 672.40 L 729.90 676.40 L 737.90 681.00 L 745.70 686.20 L 751.60 690.60 L 757.30 695.50 L 762.90 700.70 L 768.20 706.20 L 773.30 712.20 L 963.60 946.90 Z" fill="#444444" fill-rule="evenodd" group-id="12" node-id="302" stroke="none" target-height="633.7999" target-width="616.4" target-x="378.6" target-y="659.9"></path></g><g node-id="376"><path d="M 1319.70 898.20 L 1319.90 901.40 L 1319.60 904.30 L 1319.10 907.00 L 1318.10 909.50 L 1315.10 914.10 L 1311.00 917.60 L 1308.60 918.90 L 1306.00 919.90 L 1303.20 920.50 L 1300.00 920.70 L 773.00 921.30 L 769.80 921.00 L 767.00 920.40 L 764.40 919.50 L 762.00 918.20 L 759.90 916.60 L 756.50 912.60 L 755.20 910.20 L 754.30 907.60 L 753.80 904.90 L 754.00 898.90 L 817.10 517.30 L 817.80 514.20 L 820.30 508.60 L 824.10 503.60 L 826.40 501.50 L 828.90 499.60 L 834.40 496.70 L 837.40 495.70 L 843.50 494.90 L 1242.50 494.40 L 1245.60 494.60 L 1248.60 495.20 L 1251.50 496.10 L 1256.90 499.10 L 1259.40 501.00 L 1261.60 503.10 L 1265.20 508.10 L 1267.60 513.80 L 1268.20 516.80 L 1319.70 898.20 Z" fill="#444444" fill-rule="evenodd" group-id="13" node-id="307" stroke="none" target-height="426.9" target-width="566.10004" target-x="753.8" target-y="494.4"></path></g><g node-id="377"><path d="M 1342.30 1234.70 L 1340.10 1236.90 L 1335.70 1239.80 L 1333.50 1240.50 L 1331.20 1240.80 L 1328.90 1240.70 L 1326.80 1240.20 L 1324.60 1239.20 L 1322.70 1237.90 L 1319.30 1234.00 L 1317.70 1231.30 L 1113.80 799.70 L 1112.70 796.80 L 1111.90 791.60 L 1112.10 789.40 L 1112.70 787.20 L 1113.70 785.20 L 1115.00 783.50 L 1116.70 782.00 L 1118.70 780.90 L 1121.00 780.00 L 1126.80 779.30 L 1434.50 779.60 L 1639.50 779.30 L 1754.50 778.50 L 1849.70 777.00 L 1867.30 777.30 L 1883.70 777.90 L 1899.00 779.10 L 1914.70 780.70 L 1929.20 782.70 L 1942.50 784.90 L 1954.90 787.40 L 1967.50 790.50 L 1979.10 793.60 L 1989.70 796.90 L 1999.40 800.30 L 2018.30 808.00 L 2033.60 815.60 L 2043.30 821.10 L 2051.50 826.20 L 2058.40 831.10 L 2065.10 836.30 L 2074.90 844.80 L 2084.00 854.60 L 2086.80 858.30 L 2088.40 861.10 L 2089.90 865.90 L 2090.00 868.10 L 2089.60 870.20 L 2088.90 872.10 L 2087.80 873.90 L 2084.50 876.60 L 2079.70 878.30 L 1997.00 884.70 L 1961.50 887.80 L 1905.40 893.50 L 1869.40 897.90 L 1852.90 900.20 L 1823.50 905.20 L 1810.80 908.00 L 1801.10 910.50 L 1785.00 915.70 L 1768.90 921.40 L 1752.90 927.60 L 1736.90 934.30 L 1705.40 948.90 L 1674.40 965.00 L 1654.10 976.50 L 1634.20 988.40 L 1614.60 1000.80 L 1595.30 1013.60 L 1576.60 1026.50 L 1558.40 1039.70 L 1523.10 1066.50 L 1506.60 1079.70 L 1474.80 1106.30 L 1439.10 1137.90 L 1420.30 1155.40 L 1402.60 1172.40 L 1373.70 1201.20 L 1363.10 1212.30 L 1342.30 1234.70 Z" fill="#444444" fill-rule="evenodd" group-id="14" node-id="312" stroke="none" target-height="463.80005" target-width="978.1" target-x="1111.9" target-y="777"></path></g><g node-id="378"><path d="M 2551.60 1169.40 L 2551.30 1172.00 L 2550.70 1174.30 L 2549.60 1176.50 L 2548.20 1178.50 L 2546.50 1180.20 L 2544.50 1181.60 L 2542.30 1182.70 L 2540.00 1183.30 L 2537.40 1183.60 L 2355.30 1183.60 L 2352.70 1183.30 L 2350.30 1182.70 L 2348.10 1181.60 L 2346.10 1180.20 L 2343.00 1176.50 L 2342.00 1174.30 L 2341.30 1172.00 L 2341.10 1169.40 L 2341.10 1021.00 L 2341.30 1018.50 L 2342.00 1016.10 L 2344.40 1011.90 L 2346.10 1010.20 L 2348.10 1008.80 L 2350.30 1007.80 L 2355.30 1006.90 L 2537.40 1006.90 L 2540.00 1007.10 L 2542.30 1007.80 L 2544.50 1008.80 L 2546.50 1010.20 L 2548.20 1011.90 L 2549.60 1013.90 L 2550.70 1016.10 L 2551.30 1018.50 L 2551.60 1021.00 L 2551.60 1169.40 Z" fill="#ffffff" fill-rule="evenodd" group-id="15" node-id="317" stroke="none" target-height="176.69995" target-width="210.5" target-x="2341.1" target-y="1006.9"></path></g><g node-id="379"><path d="M 1030.90 626.20 L 1030.60 628.80 L 1030.00 631.10 L 1028.90 633.30 L 1027.50 635.30 L 1023.90 638.40 L 1021.70 639.50 L 1019.30 640.10 L 1016.70 640.40 L 903.60 640.40 L 901.00 640.10 L 898.60 639.50 L 896.40 638.40 L 894.40 637.00 L 892.70 635.30 L 891.30 633.30 L 890.30 631.10 L 889.60 628.80 L 889.40 626.20 L 889.40 541.10 L 889.60 538.60 L 890.30 536.20 L 891.30 534.00 L 892.70 532.00 L 894.40 530.30 L 896.40 528.90 L 898.60 527.90 L 901.00 527.20 L 903.60 527.00 L 1016.70 527.00 L 1019.30 527.20 L 1021.70 527.90 L 1023.90 528.90 L 1025.80 530.30 L 1027.50 532.00 L 1028.90 534.00 L 1030.00 536.20 L 1030.60 538.60 L 1030.90 541.10 L 1030.90 626.20 Z" fill="#ffffff" fill-rule="evenodd" group-id="16" node-id="322" stroke="none" target-height="113.400024" target-width="141.5" target-x="889.4" target-y="527"></path></g><path d="M 2262.00 1122.50 L 2261.70 1135.50 L 2260.80 1148.30 L 2259.30 1160.80 L 2257.30 1173.10 L 2254.80 1185.20 L 2251.60 1197.30 L 2248.00 1209.00 L 2243.90 1220.50 L 2239.30 1231.80 L 2234.20 1242.80 L 2228.60 1253.60 L 2222.60 1264.00 L 2216.10 1274.20 L 2209.20 1284.00 L 2201.90 1293.50 L 2194.20 1302.80 L 2186.10 1311.60 L 2177.60 1320.10 L 2168.80 1328.20 L 2159.60 1335.90 L 2150.00 1343.20 L 2140.20 1350.10 L 2130.00 1356.60 L 2119.60 1362.60 L 2108.80 1368.20 L 2097.80 1373.30 L 2086.50 1377.90 L 2075.00 1382.00 L 2063.30 1385.60 L 2051.20 1388.80 L 2039.10 1391.30 L 2026.80 1393.30 L 2014.30 1394.80 L 2001.50 1395.70 L 1988.50 1396.00 L 1975.50 1395.70 L 1962.80 1394.80 L 1950.20 1393.30 L 1937.90 1391.30 L 1925.80 1388.80 L 1913.80 1385.60 L 1902.00 1382.00 L 1890.50 1377.90 L 1879.30 1373.30 L 1868.30 1368.20 L 1857.50 1362.60 L 1847.00 1356.60 L 1836.90 1350.10 L 1827.00 1343.20 L 1817.50 1335.90 L 1808.30 1328.20 L 1799.40 1320.10 L 1791.00 1311.60 L 1782.90 1302.80 L 1775.10 1293.50 L 1767.80 1284.00 L 1760.90 1274.20 L 1754.50 1264.00 L 1748.50 1253.60 L 1742.90 1242.80 L 1737.80 1231.80 L 1733.10 1220.50 L 1729.00 1209.00 L 1725.40 1197.30 L 1722.30 1185.20 L 1719.70 1173.10 L 1717.70 1160.80 L 1716.30 1148.30 L 1715.40 1135.50 L 1715.10 1122.50 L 1715.40 1109.50 L 1716.30 1096.70 L 1717.70 1084.20 L 1719.70 1071.90 L 1722.30 1059.80 L 1725.40 1047.80 L 1729.00 1036.00 L 1733.10 1024.50 L 1737.80 1013.20 L 1742.90 1002.20 L 1748.50 991.50 L 1754.50 981.00 L 1760.90 970.80 L 1767.80 961.00 L 1775.10 951.50 L 1782.90 942.30 L 1791.00 933.40 L 1799.40 925.00 L 1808.30 916.90 L 1817.50 909.10 L 1827.00 901.80 L 1836.90 894.90 L 1847.00 888.50 L 1857.50 882.40 L 1868.30 876.80 L 1879.30 871.70 L 1890.50 867.10 L 1902.00 863.00 L 1913.80 859.40 L 1925.80 856.30 L 1937.90 853.70 L 1950.20 851.70 L 1962.80 850.20 L 1975.50 849.40 L 1988.50 849.00 L 2001.50 849.40 L 2014.30 850.20 L 2026.80 851.70 L 2039.10 853.70 L 2051.20 856.30 L 2063.30 859.40 L 2075.00 863.00 L 2086.50 867.10 L 2097.80 871.70 L 2108.80 876.80 L 2119.60 882.40 L 2130.00 888.50 L 2140.20 894.90 L 2150.00 901.80 L 2159.60 909.10 L 2168.80 916.90 L 2177.60 925.00 L 2186.10 933.40 L 2194.20 942.30 L 2201.90 951.50 L 2209.20 961.00 L 2216.10 970.80 L 2222.60 981.00 L 2228.60 991.50 L 2234.20 1002.20 L 2239.30 1013.20 L 2243.90 1024.50 L 2248.00 1036.00 L 2251.60 1047.80 L 2254.80 1059.80 L 2257.30 1071.90 L 2259.30 1084.20 L 2260.80 1096.70 L 2261.70 1109.50 L 2262.00 1122.50 Z" fill="url(#SVGID_6_)" fill-rule="evenodd" node-id="325" stroke="#636363" stroke-linecap="butt" stroke-width="10" target-height="547" target-width="546.9" target-x="1715.1" target-y="849"></path><path d="M 2171.60 1122.50 L 2171.30 1132.70 L 2170.50 1142.60 L 2169.20 1152.30 L 2167.40 1161.80 L 2165.10 1171.20 L 2162.20 1180.40 L 2159.00 1189.40 L 2155.30 1198.20 L 2151.20 1206.70 L 2146.60 1214.90 L 2141.60 1222.90 L 2136.30 1230.70 L 2130.50 1238.10 L 2124.50 1245.20 L 2118.00 1252.00 L 2111.20 1258.40 L 2104.10 1264.50 L 2096.70 1270.20 L 2089.00 1275.60 L 2080.90 1280.60 L 2072.70 1285.20 L 2064.20 1289.30 L 2055.40 1293.00 L 2046.50 1296.20 L 2037.20 1299.10 L 2027.90 1301.40 L 2018.30 1303.20 L 2008.60 1304.50 L 1998.70 1305.30 L 1988.50 1305.60 L 1978.40 1305.30 L 1968.40 1304.50 L 1958.70 1303.20 L 1949.20 1301.40 L 1939.90 1299.10 L 1930.60 1296.20 L 1921.60 1293.00 L 1912.90 1289.30 L 1904.40 1285.20 L 1896.10 1280.60 L 1888.10 1275.60 L 1880.40 1270.20 L 1873.00 1264.50 L 1865.90 1258.40 L 1859.10 1252.00 L 1852.60 1245.20 L 1846.50 1238.10 L 1840.80 1230.70 L 1835.40 1222.90 L 1830.40 1214.90 L 1825.90 1206.70 L 1821.80 1198.20 L 1818.10 1189.40 L 1814.80 1180.40 L 1812.00 1171.20 L 1809.70 1161.80 L 1807.90 1152.30 L 1806.50 1142.60 L 1805.70 1132.70 L 1805.40 1122.50 L 1805.70 1112.30 L 1806.50 1102.40 L 1807.90 1092.70 L 1809.70 1083.20 L 1812.00 1073.80 L 1814.80 1064.60 L 1818.10 1055.60 L 1821.80 1046.80 L 1825.90 1038.40 L 1830.40 1030.10 L 1835.40 1022.10 L 1840.80 1014.40 L 1846.50 1007.00 L 1852.60 999.90 L 1859.10 993.00 L 1865.90 986.60 L 1873.00 980.50 L 1880.40 974.80 L 1888.10 969.40 L 1896.10 964.40 L 1904.40 959.90 L 1912.90 955.70 L 1921.60 952.00 L 1930.60 948.80 L 1939.90 946.00 L 1949.20 943.70 L 1958.70 941.80 L 1968.40 940.50 L 1978.40 939.70 L 1988.50 939.40 L 1998.70 939.70 L 2008.60 940.50 L 2018.30 941.80 L 2027.90 943.70 L 2037.20 946.00 L 2046.50 948.80 L 2055.40 952.00 L 2064.20 955.70 L 2072.70 959.90 L 2080.90 964.40 L 2089.00 969.40 L 2096.70 974.80 L 2104.10 980.50 L 2111.20 986.60 L 2118.00 993.00 L 2124.50 999.90 L 2130.50 1007.00 L 2136.30 1014.40 L 2141.60 1022.10 L 2146.60 1030.10 L 2151.20 1038.40 L 2155.30 1046.90 L 2159.00 1055.60 L 2162.20 1064.60 L 2165.10 1073.80 L 2167.40 1083.20 L 2169.20 1092.70 L 2170.50 1102.40 L 2171.30 1112.30 L 2171.60 1122.50 Z" fill="#515151" fill-rule="evenodd" node-id="327" stroke="#2b2b2b" stroke-linecap="butt" stroke-width="8" target-height="366.19995" target-width="366.20007" target-x="1805.4" target-y="939.4"></path><path d="M 2155.10 1122.90 L 2154.80 1132.10 L 2154.10 1141.20 L 2152.90 1150.00 L 2151.30 1158.60 L 2149.20 1167.10 L 2146.60 1175.50 L 2143.60 1183.70 L 2140.30 1191.60 L 2136.60 1199.30 L 2132.40 1206.80 L 2127.90 1214.10 L 2123.00 1221.10 L 2117.80 1227.80 L 2112.30 1234.20 L 2106.40 1240.40 L 2100.30 1246.30 L 2093.80 1251.80 L 2087.10 1257.00 L 2080.10 1261.90 L 2072.80 1266.40 L 2065.30 1270.50 L 2057.60 1274.30 L 2049.70 1277.60 L 2041.50 1280.60 L 2033.10 1283.20 L 2024.60 1285.30 L 2016.00 1286.90 L 2007.20 1288.10 L 1998.20 1288.80 L 1988.90 1289.10 L 1979.70 1288.80 L 1970.70 1288.10 L 1961.90 1286.90 L 1953.20 1285.30 L 1944.80 1283.20 L 1936.40 1280.60 L 1928.20 1277.60 L 1920.30 1274.30 L 1912.60 1270.50 L 1905.10 1266.40 L 1897.80 1261.90 L 1890.80 1257.00 L 1884.10 1251.80 L 1877.60 1246.30 L 1871.40 1240.40 L 1865.60 1234.20 L 1860.00 1227.80 L 1854.90 1221.10 L 1850.00 1214.10 L 1845.50 1206.80 L 1841.30 1199.30 L 1837.60 1191.60 L 1834.20 1183.70 L 1831.30 1175.50 L 1828.70 1167.10 L 1826.60 1158.60 L 1825.00 1150.00 L 1823.80 1141.20 L 1823.00 1132.10 L 1822.80 1122.90 L 1823.00 1113.70 L 1823.80 1104.70 L 1825.00 1095.90 L 1826.60 1087.20 L 1828.70 1078.80 L 1831.30 1070.30 L 1834.20 1062.20 L 1837.60 1054.30 L 1841.30 1046.60 L 1845.50 1039.10 L 1850.00 1031.80 L 1854.90 1024.80 L 1860.00 1018.10 L 1865.60 1011.60 L 1871.40 1005.40 L 1877.60 999.60 L 1884.10 994.00 L 1890.80 988.80 L 1897.80 984.00 L 1905.10 979.50 L 1912.60 975.30 L 1920.30 971.60 L 1928.20 968.20 L 1936.40 965.30 L 1944.80 962.70 L 1953.20 960.60 L 1961.90 959.00 L 1970.70 957.80 L 1979.70 957.00 L 1988.90 956.80 L 1998.20 957.00 L 2007.20 957.80 L 2016.00 959.00 L 2024.60 960.60 L 2033.10 962.70 L 2041.50 965.30 L 2049.70 968.20 L 2057.60 971.60 L 2065.30 975.30 L 2072.80 979.50 L 2080.10 984.00 L 2087.10 988.80 L 2093.80 994.00 L 2100.30 999.60 L 2106.40 1005.40 L 2112.30 1011.60 L 2117.80 1018.10 L 2123.00 1024.80 L 2127.90 1031.80 L 2132.40 1039.10 L 2136.60 1046.60 L 2140.30 1054.30 L 2143.60 1062.20 L 2146.60 1070.30 L 2149.20 1078.80 L 2151.30 1087.20 L 2152.90 1095.90 L 2154.10 1104.70 L 2154.80 1113.70 L 2155.10 1122.90 Z" fill="none" node-id="329" stroke="#dbdbdb" stroke-linecap="butt" stroke-width="5" target-height="332.3" target-width="332.30005" target-x="1822.8" target-y="956.8"></path><path d="M 2139.50 1122.90 L 2139.30 1131.30 L 2138.60 1139.50 L 2137.50 1147.40 L 2136.00 1155.30 L 2134.10 1163.00 L 2131.20 1172.40 L 2127.70 1181.60 L 2123.60 1190.40 L 2119.00 1198.90 L 2113.80 1207.10 L 2108.10 1214.90 L 2102.00 1222.40 L 2095.40 1229.40 L 2088.40 1236.00 L 2081.00 1242.10 L 2073.20 1247.80 L 2064.90 1252.90 L 2056.40 1257.60 L 2047.60 1261.60 L 2038.50 1265.20 L 2029.00 1268.10 L 2021.30 1270.00 L 2013.50 1271.50 L 2005.50 1272.60 L 1997.30 1273.30 L 1988.90 1273.50 L 1980.90 1273.30 L 1973.00 1272.70 L 1965.20 1271.60 L 1957.50 1270.20 L 1949.90 1268.30 L 1940.50 1265.50 L 1931.30 1262.00 L 1922.40 1258.00 L 1913.80 1253.40 L 1907.00 1249.30 L 1900.60 1244.80 L 1894.30 1240.10 L 1888.30 1234.90 L 1882.50 1229.40 L 1871.80 1217.50 L 1867.00 1211.30 L 1862.60 1204.80 L 1858.50 1198.10 L 1853.90 1189.40 L 1849.80 1180.50 L 1846.40 1171.40 L 1843.50 1162.00 L 1841.70 1154.40 L 1840.20 1146.60 L 1839.20 1138.80 L 1838.60 1130.90 L 1838.40 1122.90 L 1838.60 1114.60 L 1839.30 1106.40 L 1840.40 1098.40 L 1841.80 1090.60 L 1843.70 1082.90 L 1846.70 1073.40 L 1850.20 1064.30 L 1854.30 1055.40 L 1858.90 1046.90 L 1864.10 1038.70 L 1869.80 1030.90 L 1875.90 1023.50 L 1882.50 1016.50 L 1889.50 1009.90 L 1896.90 1003.70 L 1904.70 998.10 L 1912.90 992.90 L 1921.50 988.30 L 1930.30 984.20 L 1939.40 980.70 L 1948.90 977.70 L 1956.60 975.80 L 1964.40 974.30 L 1972.40 973.30 L 1980.60 972.60 L 1988.90 972.40 L 1997.30 972.60 L 2005.50 973.30 L 2013.50 974.30 L 2021.30 975.80 L 2029.00 977.70 L 2038.50 980.70 L 2047.60 984.20 L 2056.40 988.30 L 2064.90 992.90 L 2073.20 998.10 L 2081.00 1003.70 L 2088.40 1009.90 L 2095.40 1016.50 L 2102.00 1023.50 L 2108.10 1030.90 L 2113.80 1038.70 L 2119.00 1046.90 L 2123.60 1055.40 L 2127.70 1064.30 L 2131.20 1073.40 L 2134.10 1082.90 L 2136.00 1090.60 L 2137.50 1098.40 L 2138.60 1106.40 L 2139.30 1114.60 L 2139.50 1122.90 Z" fill="none" node-id="331" stroke="#dbdbdb" stroke-linecap="butt" stroke-width="5" target-height="301.09998" target-width="301.09998" target-x="1838.4" target-y="972.4"></path><path d="M 2123.50 1122.50 L 2123.20 1131.50 L 2122.30 1140.30 L 2120.90 1149.00 L 2118.90 1157.50 L 2116.30 1166.00 L 2113.20 1174.20 L 2109.60 1182.10 L 2105.50 1189.90 L 2100.80 1197.40 L 2095.70 1204.60 L 2090.10 1211.40 L 2084.00 1218.00 L 2077.40 1224.10 L 2070.60 1229.70 L 2063.40 1234.80 L 2055.90 1239.50 L 2048.20 1243.60 L 2040.20 1247.20 L 2032.00 1250.30 L 2023.60 1252.90 L 2015.00 1254.90 L 2006.30 1256.30 L 1997.50 1257.20 L 1988.50 1257.50 L 1979.20 1257.20 L 1970.10 1256.20 L 1961.30 1254.70 L 1952.60 1252.70 L 1944.10 1250.00 L 1935.90 1246.90 L 1928.00 1243.20 L 1920.40 1239.10 L 1913.00 1234.40 L 1906.00 1229.40 L 1899.40 1223.90 L 1893.10 1218.00 L 1887.20 1211.60 L 1881.70 1205.00 L 1876.60 1198.00 L 1872.00 1190.60 L 1867.80 1183.00 L 1864.20 1175.10 L 1861.00 1166.90 L 1858.40 1158.40 L 1856.30 1149.80 L 1854.80 1140.90 L 1853.90 1131.80 L 1853.50 1122.50 L 1853.90 1113.20 L 1854.80 1104.10 L 1856.30 1095.30 L 1858.40 1086.60 L 1861.00 1078.10 L 1864.20 1069.90 L 1867.80 1062.00 L 1872.00 1054.40 L 1876.60 1047.00 L 1881.70 1040.00 L 1887.20 1033.40 L 1893.10 1027.10 L 1899.40 1021.10 L 1906.00 1015.70 L 1913.00 1010.60 L 1920.40 1006.00 L 1928.00 1001.80 L 1935.90 998.20 L 1944.10 995.00 L 1952.60 992.40 L 1961.30 990.30 L 1970.10 988.80 L 1979.20 987.90 L 1988.50 987.50 L 1997.50 987.80 L 2006.30 988.70 L 2015.00 990.10 L 2023.60 992.20 L 2032.00 994.70 L 2040.20 997.80 L 2048.20 1001.40 L 2055.90 1005.60 L 2063.40 1010.20 L 2070.60 1015.30 L 2077.40 1020.90 L 2084.00 1027.10 L 2090.10 1033.60 L 2095.70 1040.50 L 2100.80 1047.60 L 2105.50 1055.10 L 2109.60 1062.90 L 2113.20 1070.90 L 2116.30 1079.00 L 2118.90 1087.50 L 2120.90 1096.00 L 2122.30 1104.70 L 2123.20 1113.50 L 2123.50 1122.50 Z" fill="none" node-id="333" stroke="#dbdbdb" stroke-linecap="butt" stroke-width="5" target-height="270" target-width="270" target-x="1853.5" target-y="987.5"></path><path d="M 2109.30 1122.50 L 2109.00 1130.90 L 2108.20 1139.00 L 2106.90 1146.90 L 2105.00 1154.60 L 2102.60 1162.20 L 2099.80 1169.60 L 2096.60 1176.60 L 2092.80 1183.50 L 2088.70 1190.10 L 2084.20 1196.30 L 2079.20 1202.30 L 2073.90 1207.90 L 2068.30 1213.20 L 2062.40 1218.10 L 2056.10 1222.70 L 2049.50 1226.80 L 2042.70 1230.50 L 2035.60 1233.80 L 2028.30 1236.60 L 2020.60 1239.00 L 2012.90 1240.90 L 2005.00 1242.20 L 1996.90 1243.00 L 1988.50 1243.30 L 1980.20 1243.00 L 1972.00 1242.20 L 1964.10 1240.90 L 1956.40 1239.00 L 1948.80 1236.60 L 1941.50 1233.80 L 1934.40 1230.50 L 1927.50 1226.80 L 1921.00 1222.70 L 1914.70 1218.10 L 1908.70 1213.20 L 1903.10 1207.90 L 1897.80 1202.30 L 1892.90 1196.30 L 1888.40 1190.10 L 1884.20 1183.50 L 1880.50 1176.60 L 1877.20 1169.60 L 1874.40 1162.20 L 1872.00 1154.60 L 1870.20 1146.90 L 1868.80 1139.00 L 1868.00 1130.90 L 1867.70 1122.50 L 1868.00 1114.10 L 1868.80 1106.00 L 1870.20 1098.10 L 1872.00 1090.40 L 1874.40 1082.80 L 1877.20 1075.40 L 1880.50 1068.40 L 1884.20 1061.50 L 1888.40 1054.90 L 1892.90 1048.70 L 1897.80 1042.70 L 1903.10 1037.10 L 1908.70 1031.80 L 1914.70 1026.90 L 1921.00 1022.40 L 1927.50 1018.20 L 1934.40 1014.50 L 1941.50 1011.20 L 1948.80 1008.40 L 1956.40 1006.00 L 1964.10 1004.20 L 1972.00 1002.80 L 1980.20 1002.00 L 1988.50 1001.70 L 1996.90 1002.00 L 2005.00 1002.80 L 2012.90 1004.20 L 2020.60 1006.00 L 2028.20 1008.40 L 2035.60 1011.20 L 2042.70 1014.50 L 2049.50 1018.20 L 2056.10 1022.40 L 2062.40 1026.90 L 2068.30 1031.80 L 2073.90 1037.10 L 2079.20 1042.70 L 2084.20 1048.70 L 2088.70 1054.90 L 2092.80 1061.50 L 2096.60 1068.40 L 2099.80 1075.40 L 2102.60 1082.80 L 2105.00 1090.40 L 2106.90 1098.10 L 2108.20 1106.00 L 2109.00 1114.20 L 2109.30 1122.50 Z" fill="none" node-id="335" stroke="#dbdbdb" stroke-linecap="butt" stroke-width="5" target-height="241.60004" target-width="241.6001" target-x="1867.7" target-y="1001.7"></path><path d="M 2095.20 1122.50 L 2094.90 1129.60 L 2094.20 1136.50 L 2093.10 1143.30 L 2091.60 1149.80 L 2089.70 1156.20 L 2087.40 1162.50 L 2084.70 1168.60 L 2081.70 1174.40 L 2078.30 1180.10 L 2074.60 1185.50 L 2069.50 1191.90 L 2063.90 1197.90 L 2057.90 1203.50 L 2051.50 1208.60 L 2046.10 1212.30 L 2040.50 1215.70 L 2034.60 1218.70 L 2028.50 1221.40 L 2022.20 1223.70 L 2015.80 1225.60 L 2009.30 1227.10 L 2002.50 1228.20 L 1995.60 1228.90 L 1988.50 1229.10 L 1981.40 1228.90 L 1974.50 1228.20 L 1967.60 1227.10 L 1960.80 1225.50 L 1954.20 1223.50 L 1947.70 1221.00 L 1941.40 1218.20 L 1935.30 1214.90 L 1929.40 1211.20 L 1923.70 1207.20 L 1918.30 1202.70 L 1913.10 1197.90 L 1908.30 1192.70 L 1903.80 1187.30 L 1899.80 1181.70 L 1896.10 1175.80 L 1892.90 1169.60 L 1890.00 1163.30 L 1887.60 1156.80 L 1885.50 1150.20 L 1884.00 1143.40 L 1882.80 1136.60 L 1882.10 1129.60 L 1881.90 1122.50 L 1882.10 1115.40 L 1882.80 1108.50 L 1884.00 1101.60 L 1885.50 1094.80 L 1887.60 1088.20 L 1890.00 1081.70 L 1892.90 1075.40 L 1896.10 1069.30 L 1899.80 1063.30 L 1903.80 1057.70 L 1908.30 1052.30 L 1913.10 1047.10 L 1918.30 1042.30 L 1923.70 1037.80 L 1929.40 1033.80 L 1935.30 1030.10 L 1941.40 1026.80 L 1947.70 1024.00 L 1954.20 1021.60 L 1960.90 1019.50 L 1967.60 1017.90 L 1974.50 1016.80 L 1981.40 1016.10 L 1988.50 1015.90 L 1995.60 1016.10 L 2002.50 1016.80 L 2009.30 1017.90 L 2015.80 1019.40 L 2022.20 1021.30 L 2028.50 1023.60 L 2034.60 1026.30 L 2046.10 1032.70 L 2051.50 1036.40 L 2057.90 1041.60 L 2063.90 1047.10 L 2069.50 1053.10 L 2074.60 1059.50 L 2078.30 1064.90 L 2084.70 1076.40 L 2087.40 1082.50 L 2089.70 1088.80 L 2091.60 1095.20 L 2093.10 1101.80 L 2094.20 1108.50 L 2094.90 1115.40 L 2095.20 1122.50 Z" fill="none" node-id="337" stroke="#dbdbdb" stroke-linecap="butt" stroke-width="5" target-height="213.19995" target-width="213.29993" target-x="1881.9" target-y="1015.9"></path><path d="M 2082.40 1122.50 L 2082.20 1128.70 L 2080.60 1140.90 L 2079.20 1146.90 L 2077.40 1152.70 L 2075.30 1158.40 L 2069.90 1169.40 L 2066.60 1174.60 L 2059.20 1184.30 L 2054.90 1188.90 L 2050.30 1193.10 L 2045.60 1197.10 L 2040.60 1200.60 L 2035.40 1203.80 L 2030.00 1206.70 L 2024.40 1209.20 L 2012.90 1213.20 L 2006.90 1214.60 L 1994.80 1216.20 L 1988.50 1216.40 L 1982.30 1216.20 L 1976.20 1215.60 L 1970.10 1214.60 L 1964.20 1213.20 L 1952.60 1209.20 L 1947.10 1206.70 L 1941.60 1203.80 L 1936.40 1200.60 L 1926.70 1193.10 L 1922.10 1188.90 L 1914.00 1179.60 L 1910.40 1174.60 L 1904.30 1164.00 L 1901.80 1158.40 L 1899.60 1152.70 L 1897.90 1146.90 L 1895.50 1134.90 L 1894.90 1128.70 L 1894.60 1122.50 L 1894.90 1116.30 L 1895.50 1110.10 L 1896.50 1104.10 L 1897.90 1098.10 L 1899.60 1092.30 L 1901.80 1086.60 L 1904.30 1081.00 L 1910.40 1070.40 L 1914.00 1065.40 L 1917.90 1060.70 L 1922.10 1056.10 L 1926.70 1051.90 L 1931.50 1048.00 L 1936.40 1044.40 L 1941.60 1041.20 L 1952.60 1035.80 L 1964.20 1031.80 L 1970.10 1030.40 L 1982.30 1028.80 L 1988.50 1028.60 L 1994.80 1028.80 L 2006.90 1030.40 L 2012.90 1031.80 L 2018.80 1033.60 L 2024.40 1035.80 L 2030.00 1038.30 L 2035.40 1041.20 L 2040.60 1044.40 L 2045.60 1048.00 L 2050.30 1051.90 L 2054.90 1056.10 L 2059.20 1060.70 L 2063.10 1065.40 L 2066.60 1070.40 L 2069.90 1075.60 L 2075.30 1086.60 L 2077.40 1092.30 L 2079.20 1098.10 L 2080.60 1104.10 L 2081.60 1110.10 L 2082.20 1116.30 L 2082.40 1122.50 Z" fill="none" node-id="339" stroke="#dbdbdb" stroke-linecap="butt" stroke-width="5" target-height="187.80005" target-width="187.79993" target-x="1894.6" target-y="1028.6"></path><path d="M 2069.60 1122.50 L 2069.40 1129.20 L 2068.60 1135.70 L 2067.30 1142.00 L 2065.50 1148.10 L 2063.20 1154.10 L 2060.60 1159.80 L 2057.50 1165.20 L 2054.00 1170.40 L 2050.10 1175.30 L 2045.90 1179.90 L 2041.30 1184.10 L 2036.40 1188.00 L 2031.30 1191.50 L 2025.80 1194.60 L 2020.10 1197.20 L 2014.20 1199.50 L 2008.10 1201.30 L 2001.80 1202.60 L 1995.30 1203.30 L 1988.50 1203.60 L 1981.80 1203.30 L 1975.30 1202.60 L 1969.00 1201.30 L 1962.90 1199.50 L 1956.90 1197.20 L 1951.20 1194.60 L 1945.80 1191.50 L 1940.60 1188.00 L 1935.70 1184.10 L 1931.20 1179.90 L 1926.90 1175.30 L 1923.10 1170.40 L 1919.60 1165.20 L 1916.50 1159.80 L 1913.80 1154.10 L 1911.50 1148.10 L 1909.80 1142.00 L 1908.50 1135.70 L 1907.70 1129.20 L 1907.40 1122.50 L 1907.70 1115.80 L 1908.50 1109.30 L 1909.80 1103.00 L 1911.50 1096.90 L 1913.80 1090.90 L 1916.50 1085.20 L 1919.60 1079.80 L 1923.10 1074.60 L 1926.90 1069.70 L 1931.20 1065.10 L 1935.70 1060.90 L 1940.60 1057.00 L 1945.80 1053.50 L 1951.20 1050.50 L 1956.90 1047.80 L 1962.90 1045.50 L 1969.00 1043.70 L 1975.30 1042.50 L 1981.80 1041.70 L 1988.50 1041.40 L 1995.30 1041.70 L 2001.80 1042.50 L 2008.10 1043.70 L 2014.20 1045.50 L 2020.10 1047.80 L 2025.80 1050.50 L 2031.30 1053.50 L 2036.40 1057.00 L 2041.30 1060.90 L 2045.90 1065.10 L 2050.10 1069.70 L 2054.00 1074.60 L 2057.50 1079.80 L 2060.60 1085.20 L 2063.20 1090.90 L 2065.50 1096.90 L 2067.30 1103.00 L 2068.60 1109.30 L 2069.40 1115.80 L 2069.60 1122.50 Z" fill="none" node-id="341" stroke="#dbdbdb" stroke-linecap="butt" stroke-width="5" target-height="162.19995" target-width="162.20007" target-x="1907.4" target-y="1041.4"></path><path d="M 2056.90 1122.50 L 2056.60 1128.50 L 2055.80 1134.50 L 2054.50 1140.30 L 2052.80 1145.90 L 2050.50 1151.40 L 2047.80 1156.60 L 2044.60 1161.70 L 2040.90 1166.40 L 2036.90 1170.90 L 2032.40 1174.90 L 2027.70 1178.60 L 2022.70 1181.70 L 2017.40 1184.50 L 2011.90 1186.70 L 2006.30 1188.50 L 2000.50 1189.80 L 1994.60 1190.60 L 1988.50 1190.90 L 1982.80 1190.60 L 1977.40 1190.00 L 1972.10 1188.90 L 1966.90 1187.40 L 1961.90 1185.50 L 1957.10 1183.20 L 1952.50 1180.60 L 1948.10 1177.70 L 1944.00 1174.40 L 1936.60 1167.00 L 1933.30 1162.90 L 1930.40 1158.50 L 1927.80 1153.90 L 1923.60 1144.10 L 1922.10 1139.00 L 1921.10 1133.70 L 1920.40 1128.20 L 1920.20 1122.50 L 1920.40 1116.80 L 1921.10 1111.40 L 1922.10 1106.00 L 1923.60 1100.90 L 1925.60 1095.90 L 1927.80 1091.10 L 1930.40 1086.50 L 1933.30 1082.10 L 1936.60 1078.00 L 1944.00 1070.60 L 1948.10 1067.30 L 1952.50 1064.40 L 1957.10 1061.80 L 1961.90 1059.50 L 1966.90 1057.60 L 1972.10 1056.10 L 1977.40 1055.00 L 1982.80 1054.40 L 1988.50 1054.10 L 1994.60 1054.40 L 2000.50 1055.20 L 2006.30 1056.50 L 2011.90 1058.30 L 2017.40 1060.50 L 2022.70 1063.30 L 2027.70 1066.50 L 2032.40 1070.10 L 2036.90 1074.20 L 2040.90 1078.60 L 2044.60 1083.40 L 2047.80 1088.40 L 2050.50 1093.60 L 2052.80 1099.10 L 2054.50 1104.80 L 2055.80 1110.60 L 2056.60 1116.50 L 2056.90 1122.50 Z" fill="none" node-id="343" stroke="#dbdbdb" stroke-linecap="butt" stroke-width="5" target-height="136.80005" target-width="136.69995" target-x="1920.2" target-y="1054.1"></path><path d="M 2042.70 1122.50 L 2042.40 1128.10 L 2041.60 1133.50 L 2040.30 1138.70 L 2038.50 1143.60 L 2036.20 1148.40 L 2033.50 1152.80 L 2030.40 1157.00 L 2026.80 1160.80 L 2023.00 1164.30 L 2018.80 1167.40 L 2014.40 1170.10 L 2009.60 1172.40 L 2004.70 1174.30 L 1999.50 1175.60 L 1994.20 1176.40 L 1988.50 1176.70 L 1982.90 1176.40 L 1977.50 1175.60 L 1972.40 1174.30 L 1967.40 1172.40 L 1962.70 1170.10 L 1958.20 1167.40 L 1954.10 1164.30 L 1950.20 1160.80 L 1946.70 1157.00 L 1943.60 1152.80 L 1940.90 1148.40 L 1938.60 1143.60 L 1936.80 1138.70 L 1935.40 1133.50 L 1934.60 1128.10 L 1934.30 1122.50 L 1934.60 1116.90 L 1935.40 1111.50 L 1936.80 1106.40 L 1938.60 1101.40 L 1940.90 1096.60 L 1943.60 1092.20 L 1946.70 1088.00 L 1950.20 1084.20 L 1954.10 1080.70 L 1958.20 1077.60 L 1962.70 1074.90 L 1967.40 1072.60 L 1972.40 1070.80 L 1977.50 1069.40 L 1982.90 1068.60 L 1988.50 1068.30 L 1994.20 1068.60 L 1999.50 1069.40 L 2004.70 1070.80 L 2009.60 1072.60 L 2014.40 1074.90 L 2018.80 1077.60 L 2023.00 1080.70 L 2026.80 1084.20 L 2030.40 1088.00 L 2033.50 1092.20 L 2036.20 1096.60 L 2038.50 1101.40 L 2040.30 1106.40 L 2041.60 1111.50 L 2042.40 1116.90 L 2042.70 1122.50 Z" fill="none" node-id="345" stroke="#dbdbdb" stroke-linecap="butt" stroke-width="5" target-height="108.3999" target-width="108.3999" target-x="1934.3" target-y="1068.3"></path><path d="M 2028.10 1122.10 L 2027.90 1126.20 L 2027.30 1130.20 L 2026.30 1134.00 L 2025.00 1137.70 L 2021.30 1144.50 L 2016.40 1150.40 L 2010.50 1155.30 L 2003.70 1159.00 L 1996.20 1161.30 L 1988.10 1162.10 L 1984.00 1161.90 L 1980.00 1161.30 L 1972.50 1159.00 L 1965.70 1155.30 L 1962.70 1153.00 L 1959.80 1150.40 L 1954.90 1144.50 L 1951.20 1137.70 L 1949.90 1134.00 L 1948.90 1130.20 L 1948.30 1126.20 L 1948.10 1122.10 L 1948.90 1114.00 L 1949.90 1110.20 L 1951.20 1106.50 L 1954.90 1099.70 L 1959.80 1093.80 L 1962.70 1091.20 L 1965.70 1088.90 L 1972.50 1085.20 L 1980.00 1082.90 L 1988.10 1082.10 L 1996.20 1082.90 L 2000.00 1083.90 L 2003.70 1085.20 L 2010.50 1088.90 L 2016.40 1093.80 L 2021.30 1099.70 L 2025.00 1106.50 L 2026.30 1110.20 L 2027.30 1114.00 L 2027.90 1117.90 L 2028.10 1122.10 Z" fill="none" node-id="347" stroke="#dbdbdb" stroke-linecap="butt" stroke-width="5" target-height="80" target-width="80" target-x="1948.1" target-y="1082.1"></path><g node-id="380"><path d="M 1385.80 1337.60 L 1386.10 1340.70 L 1385.90 1343.60 L 1385.30 1346.40 L 1384.40 1348.90 L 1381.50 1353.50 L 1377.40 1357.00 L 1375.00 1358.30 L 1372.40 1359.30 L 1369.50 1359.90 L 1366.40 1360.10 L 700.60 1361.60 L 697.40 1361.40 L 694.60 1360.80 L 691.90 1359.90 L 687.20 1356.90 L 683.60 1352.90 L 682.20 1350.50 L 681.10 1347.90 L 680.40 1345.20 L 680.20 1339.10 L 734.20 826.20 L 734.80 823.20 L 736.90 817.50 L 738.50 814.90 L 742.60 810.30 L 744.90 808.40 L 750.30 805.40 L 753.20 804.50 L 756.20 803.90 L 759.30 803.60 L 1286.10 802.10 L 1289.20 802.30 L 1295.20 803.90 L 1300.60 806.80 L 1303.10 808.70 L 1305.30 810.90 L 1309.00 815.80 L 1310.40 818.60 L 1311.40 821.50 L 1312.00 824.50 L 1385.80 1337.60 Z" fill="#5b5b5b" fill-rule="evenodd" group-id="17" node-id="351" stroke="none" target-height="559.5" target-width="705.89996" target-x="680.2" target-y="802.1"></path><path d="M 1385.80 1337.60 L 1386.10 1340.70 L 1385.90 1343.60 L 1385.30 1346.40 L 1384.40 1348.90 L 1381.50 1353.50 L 1377.40 1357.00 L 1375.00 1358.30 L 1372.40 1359.30 L 1369.50 1359.90 L 1366.40 1360.10 L 700.60 1361.60 L 697.40 1361.40 L 694.60 1360.80 L 691.90 1359.90 L 687.20 1356.90 L 683.60 1352.90 L 682.20 1350.50 L 681.10 1347.90 L 680.40 1345.20 L 680.20 1339.10 L 734.20 826.20 L 734.80 823.20 L 736.90 817.50 L 738.50 814.90 L 742.60 810.30 L 744.90 808.40 L 750.30 805.40 L 753.20 804.50 L 756.20 803.90 L 759.30 803.60 L 1286.10 802.10 L 1289.20 802.30 L 1295.20 803.90 L 1300.60 806.80 L 1303.10 808.70 L 1305.30 810.90 L 1309.00 815.80 L 1310.40 818.60 L 1311.40 821.50 L 1312.00 824.50 L 1385.80 1337.60 Z" fill="none" group-id="17" node-id="353" stroke="#686868" stroke-linecap="butt" stroke-width="20" target-height="559.5" target-width="705.89996" target-x="680.2" target-y="802.1"></path></g><path d="M 2156.70 1065.50 L 1821.70 1185.50" fill="none" node-id="356" stroke="#cccccc" stroke-linecap="butt" stroke-width="5" target-height="120" target-width="335" target-x="1821.7" target-y="1065.5"></path><path d="M 2145.90 1208.60 L 1834.60 1034.40" fill="none" node-id="358" stroke="#cccccc" stroke-linecap="butt" stroke-width="5" target-height="174.19995" target-width="311.29993" target-x="1834.6" target-y="1034.4"></path><path d="M 1988.50 944.30 L 1988.50 1304.30" fill="none" node-id="360" stroke="#cccccc" stroke-linecap="butt" stroke-width="5" target-height="360.00006" target-width="0" target-x="1988.5" target-y="944.3"></path><path d="M 2016.90 1122.50 L 2016.60 1126.40 L 2015.90 1130.10 L 2014.60 1133.50 L 2013.00 1136.80 L 2011.00 1139.80 L 2008.60 1142.60 L 2005.80 1145.00 L 2002.80 1147.00 L 1999.60 1148.60 L 1996.10 1149.80 L 1992.40 1150.60 L 1988.50 1150.90 L 1984.60 1150.60 L 1981.00 1149.80 L 1977.50 1148.60 L 1974.20 1147.00 L 1971.20 1145.00 L 1968.50 1142.60 L 1966.10 1139.80 L 1964.10 1136.80 L 1962.40 1133.50 L 1961.20 1130.10 L 1960.40 1126.40 L 1960.20 1122.50 L 1960.40 1118.60 L 1961.20 1114.90 L 1962.40 1111.50 L 1964.10 1108.20 L 1966.10 1105.20 L 1968.50 1102.50 L 1971.20 1100.10 L 1974.20 1098.00 L 1977.50 1096.40 L 1981.00 1095.20 L 1984.60 1094.40 L 1988.50 1094.20 L 1992.40 1094.40 L 1996.10 1095.20 L 1999.60 1096.40 L 2002.80 1098.00 L 2005.80 1100.10 L 2008.60 1102.50 L 2011.00 1105.20 L 2013.00 1108.20 L 2014.60 1111.50 L 2015.90 1114.90 L 2016.60 1118.60 L 2016.90 1122.50 Z" fill="url(#SVGID_7_)" fill-rule="evenodd" node-id="362" stroke="none" target-height="56.700073" target-width="56.700073" target-x="1960.2" target-y="1094.2"></path></svg>