<?xml version="1.0" standalone="no"?><!DOCTYPE svg PUBLIC "-//W3C//DTD SVG 1.1//EN" "http://www.w3.org/Graphics/SVG/1.1/DTD/svg11.dtd"><svg height="200" node-id="1" sillyvg="true" template-height="1024" template-width="1024" version="1.1" viewBox="0 0 1024 1024" width="200" xmlns="http://www.w3.org/2000/svg" xmlns:xlink="http://www.w3.org/1999/xlink"><defs node-id="58"><linearGradient gradientUnits="objectBoundingBox" id="master_svg1_26_133" node-id="5" spreadMethod="pad" x1="0" x2="1" y1="0.5" y2="0.5"><stop offset="0" stop-color="#565d68"></stop><stop offset="1" stop-color="#838b9b"></stop></linearGradient><linearGradient gradientUnits="objectBoundingBox" id="master_svg2_26_133" node-id="8" spreadMethod="pad" x1="0" x2="1" y1="0.5" y2="0.5"><stop offset="0" stop-color="#565d68"></stop><stop offset="1" stop-color="#838b9b"></stop></linearGradient><linearGradient gradientUnits="objectBoundingBox" id="master_svg3_26_135" node-id="11" spreadMethod="pad" x1="0" x2="1" y1="0.5" y2="0.5"><stop offset="0" stop-color="#565d68"></stop><stop offset="1" stop-color="#9ca2af"></stop></linearGradient><linearGradient gradientUnits="objectBoundingBox" id="master_svg4_26_135" node-id="14" spreadMethod="pad" x1="0" x2="1" y1="0.5" y2="0.5"><stop offset="0" stop-color="#565d68"></stop><stop offset="1" stop-color="#9ca2af"></stop></linearGradient><linearGradient gradientUnits="objectBoundingBox" id="master_svg5_26_135" node-id="17" spreadMethod="pad" x1="0" x2="1" y1="0.5" y2="0.5"><stop offset="0" stop-color="#565d68"></stop><stop offset="1" stop-color="#9ca2af"></stop></linearGradient><linearGradient gradientUnits="objectBoundingBox" id="master_svg6_26_137" node-id="20" spreadMethod="pad" x1="0.266823" x2="0.3556622" y1="0.5290434" y2="0.34591666"><stop offset="0" stop-color="#ba5c25"></stop><stop offset="1" stop-color="#cc8241"></stop></linearGradient><linearGradient gradientUnits="objectBoundingBox" id="master_svg7_26_140" node-id="23" spreadMethod="pad" x1="0.730497" x2="0.38724232" y1="0.72711396" y2="0.38811463"><stop offset="0" stop-color="#ffffff"></stop><stop offset="0.948" stop-color="#ffffff" stop-opacity="0"></stop></linearGradient><clipPath id="master_svg0_26_064" node-id="3"><path d="M 0.00 0.00 L 1024.00 0.00 L 1024.00 1024.00 L 0.00 1024.00 Z" fill="#000000" fill-rule="nonzero" node-id="103" stroke="none" target-height="1024" target-width="1024" target-x="0" target-y="0"></path></clipPath></defs><g node-id="183"><g clip-path="url(#master_svg0_26_064)" group-id="1" id="sillyvg_g_1" node-id="109"><path d="M 650.20 5.30 L 645.50 2.20 L 642.90 1.10 L 637.30 0.00 L 634.40 0.10 L 631.50 0.50 L 628.60 1.50 L 625.70 2.90 L 254.20 217.30 L 249.00 220.60 L 244.30 224.30 L 239.90 228.30 L 235.90 232.70 L 232.30 237.50 L 229.10 242.50 L 226.40 247.70 L 224.10 253.20 L 222.30 258.90 L 221.00 264.70 L 220.20 270.60 L 219.90 276.80 L 219.90 426.80 L 220.20 438.00 L 221.00 449.10 L 222.30 460.10 L 224.20 471.10 L 226.60 481.90 L 229.50 492.60 L 232.90 503.10 L 236.80 513.50 L 241.20 523.70 L 246.10 533.70 L 251.50 543.40 L 261.20 559.20 L 264.70 565.60 L 267.70 572.20 L 270.40 578.90 L 272.60 585.80 L 274.50 592.90 L 275.90 599.90 L 277.00 607.10 L 277.60 614.40 L 277.80 621.70 L 277.80 951.30 L 278.70 957.30 L 280.90 962.40 L 283.20 965.40 L 285.80 967.80 L 288.80 969.90 L 379.90 1022.50 L 796.20 89.50 L 650.20 5.30 Z" fill="url(#master_svg1_26_133)" fill-rule="nonzero" group-id="1,2" node-id="113" stroke="none" target-height="1022.5" target-width="576.30005" target-x="219.9" target-y="0"></path><path d="M 400.80 302.10 L 772.30 87.60 L 775.10 86.30 L 780.50 84.90 L 783.20 84.80 L 786.90 85.20 L 790.30 86.10 L 793.50 87.60 L 796.40 89.70 L 799.00 92.20 L 801.10 95.10 L 802.40 97.50 L 803.90 102.90 L 804.10 106.00 L 804.10 747.20 L 803.80 753.40 L 803.00 759.30 L 801.70 765.10 L 799.90 770.80 L 797.60 776.30 L 794.90 781.50 L 791.70 786.50 L 788.10 791.20 L 784.10 795.60 L 779.70 799.70 L 775.00 803.30 L 769.80 806.70 L 398.30 1021.10 L 395.50 1022.50 L 390.10 1023.90 L 387.40 1024.00 L 383.70 1023.60 L 380.30 1022.70 L 377.10 1021.10 L 374.20 1019.10 L 371.60 1016.60 L 369.50 1013.70 L 368.20 1011.30 L 366.70 1005.80 L 366.50 1002.80 L 366.50 361.60 L 366.80 355.40 L 367.60 349.40 L 368.90 343.60 L 370.70 338.00 L 373.00 332.50 L 375.70 327.20 L 378.90 322.30 L 382.50 317.50 L 386.50 313.10 L 390.90 309.10 L 395.60 305.40 L 400.80 302.10 Z" fill="url(#master_svg2_26_133)" fill-rule="nonzero" group-id="1,3" node-id="118" stroke="none" target-height="939.2" target-width="437.59998" target-x="366.5" target-y="84.8"></path><path d="M 439.00 514.00 L 436.10 513.80 L 430.90 512.40 L 428.50 511.20 L 425.60 509.10 L 423.10 506.60 L 421.00 503.70 L 419.80 501.30 L 418.40 496.00 L 418.20 493.20 L 418.20 395.10 L 418.40 390.40 L 419.00 385.90 L 421.30 377.20 L 425.10 369.10 L 430.30 361.70 L 436.70 355.30 L 444.20 350.00 L 729.80 185.10 L 733.10 183.50 L 736.60 182.60 L 740.20 182.30 L 743.10 182.50 L 748.30 183.90 L 750.70 185.10 L 753.70 187.20 L 756.10 189.70 L 758.20 192.60 L 759.40 195.00 L 760.90 200.20 L 761.10 203.10 L 761.10 301.20 L 760.90 305.90 L 760.30 310.40 L 757.90 319.10 L 754.10 327.20 L 748.90 334.60 L 745.90 338.00 L 742.60 341.00 L 735.00 346.30 L 449.40 511.20 L 446.10 512.80 L 442.70 513.70 L 439.00 514.00 Z" fill="#06daae" fill-rule="nonzero" group-id="1,4" node-id="123" stroke="none" target-height="331.7" target-width="342.89996" target-x="418.2" target-y="182.3"></path><path d="M 571.80 517.10 L 549.20 504.00 L 543.50 501.70 L 540.50 501.00 L 537.40 500.80 L 534.30 501.00 L 531.10 501.50 L 528.00 502.60 L 524.90 504.10 L 444.60 550.50 L 441.00 552.70 L 434.70 558.10 L 431.90 561.10 L 428.70 565.50 L 425.90 570.20 L 423.80 575.20 L 421.60 583.20 L 421.10 587.30 L 420.90 670.30 L 421.10 673.80 L 421.80 677.00 L 422.80 680.00 L 424.30 682.80 L 426.00 685.40 L 430.40 689.70 L 432.90 691.40 L 458.80 706.20 L 571.80 517.10 Z" fill="url(#master_svg3_26_135)" fill-rule="nonzero" group-id="1,5" node-id="128" stroke="none" target-height="205.40002" target-width="150.9" target-x="420.9" target-y="500.8"></path><path d="M 468.30 564.10 L 548.60 517.70 L 551.90 516.10 L 555.30 515.00 L 558.60 514.50 L 562.00 514.50 L 565.30 514.80 L 568.50 515.70 L 571.60 517.00 L 574.40 518.60 L 577.00 520.60 L 579.30 522.90 L 581.30 525.60 L 583.00 528.60 L 584.20 531.70 L 585.00 535.20 L 585.20 538.90 L 585.00 621.90 L 583.60 630.10 L 582.30 634.00 L 580.20 639.00 L 577.50 643.70 L 574.20 648.10 L 568.40 653.90 L 565.10 656.50 L 481.20 705.10 L 477.90 706.70 L 474.50 707.80 L 471.20 708.30 L 467.80 708.40 L 464.50 708.00 L 461.30 707.20 L 458.20 705.90 L 455.40 704.30 L 452.80 702.20 L 450.50 699.90 L 448.50 697.30 L 446.80 694.30 L 445.60 691.10 L 444.90 687.70 L 444.60 684.00 L 444.80 600.90 L 445.30 596.80 L 447.50 588.90 L 449.60 583.80 L 452.40 579.10 L 455.60 574.70 L 458.40 571.70 L 464.70 566.40 L 468.30 564.10 Z" fill="#838b9b" fill-rule="nonzero" group-id="1,6" node-id="133" stroke="none" target-height="193.90002" target-width="140.6" target-x="444.6" target-y="514.5"></path><path d="M 766.70 404.50 L 744.00 391.40 L 738.40 389.10 L 732.30 388.20 L 729.10 388.30 L 725.90 388.90 L 722.80 390.00 L 719.70 391.50 L 639.40 437.80 L 635.80 440.10 L 629.50 445.40 L 626.70 448.50 L 623.50 452.90 L 620.80 457.60 L 618.60 462.60 L 616.40 470.50 L 615.90 474.70 L 615.70 557.70 L 615.90 561.20 L 616.60 564.40 L 617.70 567.40 L 619.10 570.20 L 620.80 572.80 L 625.20 577.10 L 627.70 578.80 L 653.60 593.50 L 766.70 404.50 Z" fill="url(#master_svg4_26_135)" fill-rule="nonzero" group-id="1,7" node-id="138" stroke="none" target-height="205.29999" target-width="151" target-x="615.7" target-y="388.2"></path><path d="M 663.10 451.50 L 743.40 405.10 L 746.80 403.50 L 750.10 402.40 L 753.50 401.90 L 756.90 401.80 L 760.10 402.20 L 763.30 403.10 L 766.40 404.30 L 769.20 406.00 L 771.80 408.00 L 774.20 410.30 L 776.20 413.00 L 777.80 415.90 L 779.00 419.10 L 779.80 422.50 L 780.00 426.30 L 779.90 509.30 L 779.30 513.40 L 777.20 521.40 L 775.00 526.40 L 772.30 531.10 L 769.00 535.50 L 766.20 538.50 L 759.90 543.90 L 756.30 546.20 L 676.10 592.50 L 672.70 594.10 L 669.30 595.20 L 666.00 595.70 L 662.60 595.80 L 659.30 595.40 L 656.10 594.50 L 653.10 593.30 L 650.20 591.60 L 647.60 589.60 L 645.30 587.30 L 643.30 584.60 L 641.60 581.70 L 640.40 578.50 L 639.70 575.10 L 639.40 571.30 L 639.60 488.30 L 640.10 484.20 L 642.30 476.20 L 644.50 471.20 L 647.20 466.50 L 650.40 462.10 L 653.20 459.10 L 659.50 453.80 L 663.10 451.50 Z" fill="#838b9b" fill-rule="nonzero" group-id="1,8" node-id="143" stroke="none" target-height="194" target-width="140.59998" target-x="639.4" target-y="401.8"></path><path d="M 571.80 724.70 L 549.20 711.70 L 543.50 709.30 L 537.40 708.40 L 534.30 708.60 L 531.10 709.20 L 528.00 710.20 L 524.90 711.70 L 444.60 758.10 L 441.00 760.40 L 434.70 765.70 L 431.90 768.70 L 428.70 773.10 L 425.90 777.80 L 423.80 782.90 L 421.60 790.80 L 421.10 794.90 L 420.90 878.00 L 421.10 881.40 L 421.80 884.70 L 422.80 887.60 L 424.30 890.50 L 426.00 893.00 L 430.40 897.30 L 432.90 899.00 L 458.80 913.80 L 571.80 724.70 Z" fill="url(#master_svg5_26_135)" fill-rule="nonzero" group-id="1,9" node-id="148" stroke="none" target-height="205.39996" target-width="150.9" target-x="420.9" target-y="708.4"></path><path d="M 468.30 771.70 L 548.60 725.40 L 551.90 723.70 L 555.30 722.70 L 558.60 722.10 L 562.00 722.10 L 565.30 722.50 L 568.50 723.30 L 571.60 724.60 L 574.40 726.20 L 577.00 728.20 L 579.30 730.60 L 581.30 733.20 L 583.00 736.20 L 584.20 739.40 L 585.00 742.80 L 585.20 746.50 L 585.00 829.60 L 584.50 833.70 L 582.30 841.60 L 580.20 846.70 L 577.50 851.40 L 574.20 855.80 L 571.40 858.80 L 565.10 864.10 L 561.50 866.40 L 481.20 912.80 L 477.90 914.40 L 474.50 915.40 L 471.20 916.00 L 467.80 916.00 L 464.50 915.60 L 461.30 914.80 L 458.20 913.50 L 455.40 911.90 L 452.80 909.90 L 450.50 907.50 L 448.50 904.90 L 446.80 901.90 L 445.60 898.80 L 444.90 895.30 L 444.60 891.60 L 444.80 808.50 L 445.30 804.40 L 447.50 796.50 L 449.60 791.50 L 452.40 786.80 L 455.60 782.40 L 458.40 779.30 L 464.70 774.00 L 468.30 771.70 Z" fill="#838b9b" fill-rule="nonzero" group-id="1,10" node-id="153" stroke="none" target-height="193.90002" target-width="140.6" target-x="444.6" target-y="722.1"></path><path d="M 766.70 612.10 L 744.00 599.10 L 738.40 596.70 L 732.30 595.80 L 729.10 596.00 L 725.90 596.60 L 722.80 597.60 L 719.70 599.10 L 639.40 645.50 L 635.80 647.80 L 629.50 653.10 L 626.70 656.10 L 623.50 660.50 L 620.80 665.20 L 618.60 670.30 L 616.40 678.20 L 615.90 682.30 L 615.70 765.40 L 615.90 768.80 L 616.60 772.00 L 617.70 775.00 L 619.10 777.90 L 620.80 780.40 L 625.20 784.70 L 627.70 786.40 L 653.60 801.20 L 766.70 612.10 Z" fill="url(#master_svg6_26_137)" fill-rule="nonzero" group-id="1,11" node-id="158" stroke="none" target-height="205.40002" target-width="151" target-x="615.7" target-y="595.8"></path><path d="M 663.10 659.10 L 743.40 612.70 L 746.80 611.10 L 750.10 610.10 L 753.50 609.50 L 756.90 609.50 L 760.10 609.90 L 763.30 610.70 L 766.40 612.00 L 769.20 613.60 L 771.80 615.60 L 774.20 618.00 L 776.20 620.60 L 777.80 623.60 L 779.00 626.70 L 779.80 630.20 L 780.00 633.90 L 779.90 717.00 L 779.30 721.10 L 777.20 729.00 L 775.00 734.00 L 772.30 738.70 L 769.00 743.10 L 766.20 746.20 L 759.90 751.50 L 676.10 800.10 L 672.70 801.80 L 669.30 802.80 L 666.00 803.40 L 662.60 803.40 L 659.30 803.00 L 656.10 802.20 L 653.10 800.90 L 650.20 799.30 L 647.60 797.30 L 645.30 794.90 L 643.30 792.30 L 641.60 789.30 L 640.40 786.10 L 639.70 782.70 L 639.40 779.00 L 639.60 695.90 L 640.10 691.80 L 642.30 683.90 L 644.50 678.80 L 647.20 674.10 L 650.40 669.70 L 653.20 666.70 L 659.50 661.40 L 663.10 659.10 Z" fill="#ffa538" fill-rule="nonzero" group-id="1,12" node-id="163" stroke="none" target-height="193.90002" target-width="140.59998" target-x="639.4" target-y="609.5"></path><path d="M 545.20 580.40 L 527.00 590.90 L 527.00 566.60 L 526.70 563.50 L 526.10 561.00 L 525.20 559.00 L 523.90 557.30 L 522.40 556.10 L 520.60 555.50 L 518.70 555.40 L 516.60 555.80 L 514.20 556.90 L 509.80 560.50 L 507.70 563.00 L 504.40 568.60 L 502.20 575.00 L 501.40 581.40 L 501.40 605.70 L 483.10 616.20 L 480.90 617.80 L 476.70 622.30 L 473.30 627.90 L 472.10 631.10 L 470.50 637.50 L 470.30 640.70 L 470.60 643.80 L 471.20 646.30 L 472.10 648.30 L 473.40 650.00 L 474.90 651.10 L 476.70 651.80 L 478.50 651.90 L 480.70 651.50 L 483.10 650.40 L 501.40 639.80 L 501.40 664.20 L 501.60 667.30 L 502.20 669.80 L 503.10 671.80 L 504.40 673.50 L 505.90 674.60 L 507.70 675.20 L 509.60 675.40 L 511.70 674.90 L 514.20 673.80 L 516.40 672.30 L 518.60 670.30 L 522.40 665.10 L 525.20 659.00 L 526.20 655.70 L 527.00 649.40 L 527.00 625.00 L 545.20 614.50 L 547.50 612.90 L 551.70 608.40 L 555.00 602.80 L 556.30 599.70 L 557.20 596.40 L 558.00 590.10 L 557.80 586.90 L 557.20 584.40 L 556.30 582.40 L 555.00 580.80 L 553.40 579.60 L 551.70 579.00 L 549.80 578.90 L 547.70 579.30 L 545.20 580.40 Z M 545.20 762.30 L 543.40 761.30 L 541.50 760.90 L 539.40 761.20 L 537.30 761.90 L 535.10 763.10 L 530.90 767.00 L 527.10 772.70 L 514.20 797.40 L 501.30 787.60 L 499.50 786.70 L 497.60 786.30 L 495.50 786.50 L 493.40 787.20 L 491.20 788.40 L 489.00 790.30 L 485.00 795.00 L 483.20 798.10 L 481.70 801.40 L 479.80 807.70 L 479.50 813.80 L 479.80 816.40 L 480.60 818.80 L 481.70 820.70 L 483.20 822.20 L 496.10 831.90 L 483.20 856.60 L 480.60 863.10 L 479.80 866.30 L 479.50 872.30 L 479.80 874.90 L 480.60 877.40 L 481.70 879.30 L 483.20 880.70 L 484.90 881.70 L 486.80 882.00 L 489.00 881.80 L 491.00 881.10 L 493.20 879.90 L 495.50 878.10 L 499.40 873.40 L 501.30 870.30 L 514.20 845.60 L 527.10 855.40 L 528.80 856.30 L 530.80 856.70 L 532.90 856.50 L 534.90 855.80 L 537.10 854.50 L 539.40 852.70 L 543.30 848.00 L 545.20 844.90 L 546.70 841.60 L 548.50 835.30 L 548.90 829.20 L 548.50 826.60 L 547.70 824.20 L 546.60 822.30 L 545.20 820.80 L 532.30 811.00 L 545.20 786.40 L 547.80 779.90 L 548.90 773.50 L 548.50 768.10 L 547.70 765.60 L 546.60 763.70 L 545.20 762.30 Z M 665.90 528.20 L 666.70 521.80 L 668.90 515.40 L 672.20 509.80 L 674.30 507.30 L 678.70 503.70 L 740.80 467.90 L 743.20 466.80 L 745.30 466.30 L 747.20 466.50 L 749.00 467.10 L 750.50 468.20 L 751.80 469.90 L 752.70 471.90 L 753.30 474.40 L 753.60 477.50 L 753.40 480.70 L 752.80 483.90 L 750.50 490.30 L 747.20 495.90 L 745.20 498.40 L 743.00 500.40 L 740.80 502.00 L 678.70 537.80 L 676.20 538.90 L 674.10 539.40 L 672.20 539.20 L 670.40 538.60 L 668.90 537.50 L 667.60 535.80 L 666.70 533.80 L 666.10 531.30 L 665.90 528.20 Z M 665.90 702.40 L 666.70 696.00 L 668.90 689.60 L 672.20 684.00 L 674.30 681.50 L 678.70 677.90 L 740.80 642.10 L 743.20 641.00 L 745.30 640.50 L 747.20 640.70 L 749.00 641.30 L 750.50 642.40 L 751.80 644.10 L 752.70 646.10 L 753.30 648.60 L 753.60 651.70 L 752.80 658.10 L 750.50 664.50 L 747.20 670.10 L 745.20 672.60 L 740.80 676.20 L 678.70 712.00 L 676.20 713.10 L 674.10 713.60 L 672.20 713.40 L 670.40 712.80 L 668.90 711.70 L 667.60 710.00 L 666.70 708.00 L 666.10 705.50 L 665.90 702.40 Z M 665.90 765.50 L 666.70 759.20 L 668.90 752.80 L 672.20 747.20 L 674.30 744.70 L 678.70 741.10 L 740.80 705.20 L 743.20 704.10 L 745.30 703.70 L 747.20 703.80 L 749.00 704.50 L 750.50 705.60 L 751.80 707.30 L 752.70 709.30 L 753.30 711.80 L 753.60 714.90 L 753.40 718.10 L 752.80 721.30 L 750.50 727.70 L 747.20 733.30 L 745.20 735.80 L 740.80 739.40 L 678.70 775.20 L 676.20 776.30 L 674.10 776.70 L 672.20 776.60 L 670.40 776.00 L 668.90 774.80 L 667.60 773.20 L 666.70 771.20 L 666.10 768.70 L 665.90 765.50 Z" fill="#ffffff" fill-rule="nonzero" group-id="1,13,16" node-id="170" stroke="none" target-height="415.7" target-width="283.3" target-x="470.3" target-y="466.3"></path><path d="M 617.70 374.50 L 615.00 375.40 L 612.70 375.00 L 611.00 373.20 L 610.10 370.50 L 610.00 314.50 L 603.00 318.50 L 600.20 319.40 L 598.00 319.00 L 597.10 318.30 L 595.80 316.10 L 595.40 314.50 L 595.50 309.80 L 596.30 306.80 L 597.50 304.00 L 599.10 301.50 L 601.00 299.40 L 603.00 297.90 L 619.20 288.70 L 621.60 288.50 L 623.60 289.60 L 625.00 291.80 L 625.30 293.30 L 625.50 359.70 L 625.20 362.60 L 624.40 365.50 L 623.20 368.30 L 621.60 370.80 L 619.70 373.00 L 617.70 374.50 Z M 675.30 341.30 L 645.80 358.30 L 644.20 359.00 L 642.80 359.20 L 641.50 359.00 L 640.30 358.40 L 639.40 357.40 L 638.60 355.80 L 638.10 352.20 L 638.30 350.00 L 639.10 346.70 L 640.60 343.30 L 649.50 327.00 L 659.90 306.90 L 663.50 299.20 L 665.00 294.30 L 665.50 289.40 L 665.40 287.30 L 664.50 285.00 L 663.80 284.50 L 662.90 284.40 L 661.00 285.00 L 659.20 286.00 L 657.20 288.10 L 655.20 294.40 L 653.90 297.10 L 652.20 299.60 L 650.40 301.60 L 647.70 303.30 L 645.00 303.70 L 642.90 302.70 L 641.60 300.70 L 640.90 296.70 L 641.30 293.70 L 643.90 284.80 L 645.70 280.80 L 647.90 276.90 L 650.30 273.50 L 652.90 270.50 L 655.80 267.80 L 658.90 265.50 L 662.20 263.70 L 665.30 262.50 L 668.00 262.00 L 670.30 261.90 L 672.50 262.40 L 674.40 263.30 L 676.20 264.60 L 677.70 266.50 L 679.10 269.10 L 680.00 272.00 L 680.70 275.30 L 681.00 283.10 L 679.90 291.70 L 678.80 296.00 L 675.90 304.60 L 671.20 314.60 L 665.10 326.50 L 676.70 320.00 L 678.00 319.70 L 680.20 320.20 L 682.00 321.90 L 682.90 324.60 L 683.00 326.50 L 682.70 329.40 L 682.00 332.30 L 680.70 335.10 L 679.20 337.60 L 677.30 339.80 L 675.30 341.30 Z M 712.00 320.10 L 708.30 321.90 L 704.50 323.30 L 700.50 324.20 L 696.30 324.60 L 695.10 324.40 L 693.30 323.20 L 692.30 321.70 L 691.80 319.40 L 691.80 317.00 L 692.30 314.10 L 693.30 311.20 L 694.60 308.60 L 696.30 306.30 L 699.40 303.80 L 700.70 303.30 L 705.70 302.60 L 709.00 301.70 L 712.00 300.40 L 714.60 298.50 L 716.90 296.20 L 718.80 293.40 L 720.90 288.30 L 721.70 283.70 L 721.50 280.40 L 720.70 278.50 L 719.70 277.40 L 717.10 276.20 L 711.60 276.30 L 710.60 276.00 L 709.50 274.90 L 708.60 273.30 L 708.10 271.20 L 708.10 268.80 L 708.60 266.30 L 713.30 253.90 L 699.60 261.60 L 697.00 261.60 L 696.00 261.00 L 694.90 259.80 L 694.10 258.00 L 693.80 255.30 L 694.10 252.50 L 694.80 249.70 L 696.00 247.00 L 697.50 244.70 L 699.30 242.60 L 701.20 241.20 L 728.80 225.40 L 730.10 225.20 L 732.20 225.70 L 733.90 227.50 L 734.60 229.60 L 734.80 232.20 L 734.40 235.00 L 733.50 238.00 L 726.50 255.40 L 730.10 257.40 L 731.80 259.00 L 733.20 260.80 L 734.50 263.20 L 735.60 266.30 L 736.50 272.00 L 736.50 275.90 L 735.50 283.80 L 734.40 288.30 L 731.20 297.30 L 728.80 302.10 L 725.10 308.00 L 719.50 314.40 L 716.00 317.40 L 712.00 320.10 Z" fill="#ffffff" fill-rule="nonzero" group-id="1,14" node-id="176" stroke="none" target-height="150.2" target-width="141.09998" target-x="595.4" target-y="225.2"></path><path d="M 731.20 187.40 L 445.50 352.30 L 441.80 354.70 L 435.20 360.30 L 429.80 366.80 L 425.50 374.20 L 422.60 382.20 L 421.10 390.70 L 420.90 493.20 L 421.00 495.60 L 422.20 499.90 L 423.70 502.80 L 425.60 505.40 L 745.30 185.70 L 742.90 185.20 L 738.10 185.10 L 733.40 186.30 L 731.20 187.40 Z" fill="url(#master_svg7_26_140)" fill-rule="nonzero" group-id="1,15" node-id="181" stroke="none" target-height="320.3" target-width="324.4" target-x="420.9" target-y="185.1"></path></g></g></svg>